<?xml version="1.0" encoding="utf-8"?>
<!-- Generator: Adobe Illustrator 16.0.0, SVG Export Plug-In . SVG Version: 6.00 Build 0)  -->
<!DOCTYPE svg PUBLIC "-//W3C//DTD SVG 1.1//EN" "http://www.w3.org/Graphics/SVG/1.1/DTD/svg11.dtd">
<svg version="1.1" id="Layer_1" xmlns="http://www.w3.org/2000/svg" xmlns:xlink="http://www.w3.org/1999/xlink" x="0px" y="0px"
	 width="54.1px" height="54.1px" viewBox="0 0 54.1 54.1" style="enable-background:new 0 0 54.1 54.1;" xml:space="preserve">
<style type="text/css">
<![CDATA[
	.st0{fill:none;stroke:#000000;stroke-width:0.3;}
	.st1{fill:none;}
	.st2{fill:none;stroke:#000000;stroke-width:0.7;stroke-linecap:round;}
]]>
</style>
<g>
	<rect class="st1" width="54.1" height="54.1"/>
	<line class="st2" x1="28.5" y1="10.5" x2="28.5" y2="10.5"/>
	<line class="st2" x1="23.4" y1="7.9" x2="23.4" y2="7.9"/>
	<line class="st2" x1="22.2" y1="12.2" x2="22.2" y2="12.2"/>
	<line class="st2" x1="18.5" y1="7.9" x2="18.5" y2="7.9"/>
	<line class="st2" x1="21.1" y1="3.8" x2="21.1" y2="3.8"/>
	<line class="st2" x1="15.8" y1="4.8" x2="15.8" y2="4.8"/>
	<line class="st2" x1="13.1" y1="8.5" x2="13.1" y2="8.5"/>
	<line class="st2" x1="11" y1="2.9" x2="11" y2="2.9"/>
	<line class="st2" x1="17.2" y1="1.2" x2="17.2" y2="1.2"/>
	<line class="st2" x1="5.8" y1="1.6" x2="5.8" y2="1.6"/>
	<line class="st2" x1="1.2" y1="1.9" x2="1.2" y2="1.9"/>
	<line class="st2" x1="2.6" y1="7.5" x2="2.6" y2="7.5"/>
	<line class="st2" x1="8.1" y1="9.5" x2="8.1" y2="9.5"/>
	<line class="st2" x1="9.5" y1="14.9" x2="9.5" y2="14.9"/>
	<line class="st2" x1="5.6" y1="12.9" x2="5.6" y2="12.9"/>
	<line class="st2" x1="7.6" y1="25.5" x2="7.6" y2="25.5"/>
	<line class="st2" x1="12.9" y1="25.8" x2="12.9" y2="25.8"/>
	<line class="st2" x1="9.5" y1="29.6" x2="9.5" y2="29.6"/>
	<line class="st2" x1="4.5" y1="29.1" x2="4.5" y2="29.1"/>
	<line class="st2" x1="0.9" y1="26.4" x2="0.9" y2="26.4"/>
	<line class="st2" x1="1.4" y1="32.6" x2="1.4" y2="32.6"/>
	<line class="st2" x1="6.9" y1="34" x2="6.9" y2="34"/>
	<line class="st2" x1="11" y1="36.8" x2="11" y2="36.8"/>
	<line class="st2" x1="6.9" y1="39.2" x2="6.9" y2="39.2"/>
	<line class="st2" x1="2" y1="39.4" x2="2" y2="39.4"/>
	<line class="st2" x1="4.6" y1="43.5" x2="4.6" y2="43.5"/>
	<line class="st2" x1="2.1" y1="47.8" x2="2.1" y2="47.8"/>
	<line class="st2" x1="8.1" y1="47" x2="8.1" y2="47"/>
	<line class="st2" x1="9.2" y1="51.5" x2="9.2" y2="51.5"/>
	<line class="st2" x1="13" y1="47.9" x2="13" y2="47.9"/>
	<line class="st2" x1="13.8" y1="42.4" x2="13.8" y2="42.4"/>
	<line class="st2" x1="15.5" y1="36" x2="15.5" y2="36"/>
	<line class="st2" x1="16.2" y1="29.6" x2="16.2" y2="29.6"/>
	<line class="st2" x1="18.1" y1="24.5" x2="18.1" y2="24.5"/>
	<line class="st2" x1="22.5" y1="21.2" x2="22.5" y2="21.2"/>
	<line class="st2" x1="21.4" y1="28.6" x2="21.4" y2="28.6"/>
	<line class="st2" x1="20.5" y1="33.4" x2="20.5" y2="33.4"/>
	<line class="st2" x1="23.8" y1="37.2" x2="23.8" y2="37.2"/>
	<line class="st2" x1="21.1" y1="42.4" x2="21.1" y2="42.4"/>
	<line class="st2" x1="17.1" y1="45.4" x2="17.1" y2="45.4"/>
	<line class="st2" x1="22.1" y1="47" x2="22.1" y2="47"/>
	<line class="st2" x1="18.9" y1="51.9" x2="18.9" y2="51.9"/>
	<line class="st2" x1="25.4" y1="52.1" x2="25.4" y2="52.1"/>
	<line class="st2" x1="27.5" y1="46.6" x2="27.5" y2="46.6"/>
	<line class="st2" x1="30.4" y1="42.1" x2="30.4" y2="42.1"/>
	<line class="st2" x1="28.8" y1="38.6" x2="28.8" y2="38.6"/>
	<line class="st2" x1="33.5" y1="39.4" x2="33.5" y2="39.4"/>
	<line class="st2" x1="31.8" y1="35" x2="31.8" y2="35"/>
	<line class="st2" x1="37.4" y1="37.1" x2="37.4" y2="37.1"/>
	<line class="st2" x1="40.2" y1="41.2" x2="40.2" y2="41.2"/>
	<line class="st2" x1="39.6" y1="46.4" x2="39.6" y2="46.4"/>
	<line class="st2" x1="33.6" y1="47.4" x2="33.6" y2="47.4"/>
	<line class="st2" x1="32.9" y1="51.4" x2="32.9" y2="51.4"/>
	<line class="st2" x1="36.5" y1="53.1" x2="36.5" y2="53.1"/>
	<line class="st2" x1="44.2" y1="44.2" x2="44.2" y2="44.2"/>
	<line class="st2" x1="45.8" y1="48.1" x2="45.8" y2="48.1"/>
	<line class="st2" x1="44.6" y1="52.8" x2="44.6" y2="52.8"/>
	<line class="st2" x1="48.9" y1="50.2" x2="48.9" y2="50.2"/>
	<line class="st2" x1="52.8" y1="48.4" x2="52.8" y2="48.4"/>
	<line class="st2" x1="51.9" y1="41.5" x2="51.9" y2="41.5"/>
	<line class="st2" x1="47.8" y1="39.9" x2="47.8" y2="39.9"/>
	<line class="st2" x1="52.9" y1="36.4" x2="52.9" y2="36.4"/>
	<line class="st2" x1="47.8" y1="35.1" x2="47.8" y2="35.1"/>
	<line class="st2" x1="42.8" y1="34.9" x2="42.8" y2="34.9"/>
	<line class="st2" x1="42.9" y1="30.1" x2="42.9" y2="30.1"/>
	<line class="st2" x1="37.8" y1="29.5" x2="37.8" y2="29.5"/>
	<line class="st2" x1="31.5" y1="29.9" x2="31.5" y2="29.9"/>
	<line class="st2" x1="25.2" y1="29.6" x2="25.2" y2="29.6"/>
	<line class="st2" x1="29.5" y1="25.9" x2="29.5" y2="25.9"/>
	<line class="st2" x1="34" y1="25.9" x2="34" y2="25.9"/>
	<line class="st2" x1="31.5" y1="21.2" x2="31.5" y2="21.2"/>
	<line class="st2" x1="26.9" y1="21.5" x2="26.9" y2="21.5"/>
	<line class="st2" x1="29.6" y1="17.1" x2="29.6" y2="17.1"/>
	<line class="st2" x1="34.9" y1="15" x2="34.9" y2="15"/>
	<line class="st2" x1="35.5" y1="18.8" x2="35.5" y2="18.8"/>
	<line class="st2" x1="40.6" y1="20.5" x2="40.6" y2="20.5"/>
	<line class="st2" x1="40.5" y1="25.6" x2="40.5" y2="25.6"/>
	<line class="st2" x1="46.1" y1="25" x2="46.1" y2="25"/>
	<line class="st2" x1="50.9" y1="27.2" x2="50.9" y2="27.2"/>
	<line class="st2" x1="52.4" y1="21.8" x2="52.4" y2="21.8"/>
	<line class="st2" x1="46.2" y1="19.1" x2="46.2" y2="19.1"/>
	<line class="st2" x1="50.8" y1="17" x2="50.8" y2="17"/>
	<line class="st2" x1="47.2" y1="13" x2="47.2" y2="13"/>
	<line class="st2" x1="42.1" y1="11.6" x2="42.1" y2="11.6"/>
	<line class="st2" x1="39.9" y1="15.5" x2="39.9" y2="15.5"/>
	<line class="st2" x1="38.2" y1="8.1" x2="38.2" y2="8.1"/>
	<line class="st2" x1="49.4" y1="8.9" x2="49.4" y2="8.9"/>
	<line class="st2" x1="53.1" y1="12.8" x2="53.1" y2="12.8"/>
	<line class="st2" x1="52.6" y1="5.1" x2="52.6" y2="5.1"/>
	<line class="st2" x1="48.1" y1="1.6" x2="48.1" y2="1.6"/>
	<line class="st2" x1="42.1" y1="1.4" x2="42.1" y2="1.4"/>
	<line class="st2" x1="40.9" y1="5.1" x2="40.9" y2="5.1"/>
	<line class="st2" x1="37.2" y1="2" x2="37.2" y2="2"/>
	<line class="st2" x1="35.1" y1="5" x2="35.1" y2="5"/>
	<line class="st2" x1="29.5" y1="6.1" x2="29.5" y2="6.1"/>
	<line class="st2" x1="30.8" y1="2.2" x2="30.8" y2="2.2"/>
	<line class="st2" x1="24.9" y1="1.4" x2="24.9" y2="1.4"/>
	<line class="st2" x1="33.5" y1="9" x2="33.5" y2="9"/>
	<line class="st2" x1="2.9" y1="17.6" x2="2.9" y2="17.6"/>
	<line class="st2" x1="7.8" y1="19.2" x2="7.8" y2="19.2"/>
	<line class="st2" x1="1.2" y1="21.5" x2="1.2" y2="21.5"/>
	<line class="st2" x1="11.1" y1="21.8" x2="11.1" y2="21.8"/>
	<line class="st2" x1="13.4" y1="16.5" x2="13.4" y2="16.5"/>
	<line class="st2" x1="18.6" y1="15.2" x2="18.6" y2="15.2"/>
	<line class="st2" x1="22.1" y1="17.4" x2="22.1" y2="17.4"/>
	<path class="st0" d="M4.8,48.1l-2.5,2l4,1.8c0,0,0.8-2,0-2.5S4.8,48.1,4.8,48.1z"/>
	<path class="st0" d="M49.1,43.6c1,0.5,2.8,0.8,2.2,2s-2.5,1-2.5,1L49.1,43.6z"/>
	<path class="st0" d="M37.5,48l5.2,1.6l-0.8,3L39.5,51C39.5,51,37.9,50.2,37.5,48z"/>
	<polygon class="st0" points="49.6,19.9 49.6,22.4 47.4,22.4 	"/>
	<polygon class="st0" points="2.3,11 3.8,15.2 0.3,15.5 	"/>
	<polygon class="st0" points="44.7,28.3 46.7,32 50,30.5 47.7,28.5 	"/>
	<polygon class="st0" points="43.4,14.6 42.5,16.8 43.9,17.3 45.6,16.3 44.8,15 	"/>
	<polygon class="st0" points="23.6,23.7 25.4,23.7 25.4,27 21.8,25.7 22.3,24.1 	"/>
	<polygon class="st0" points="17.1,38.1 18.4,40.4 20.5,37.7 	"/>
	<polygon class="st0" points="34.6,31.2 37.8,33 36.4,34.1 34.9,32.8 	"/>
	<polygon class="st0" points="35.9,21.5 38.5,23.1 35.8,24.9 34,22.6 34.9,21.1 	"/>
	<polygon class="st0" points="3.1,34.3 5.5,35.8 4,36.9 1.3,36.9 	"/>
	<polygon class="st0" points="3,21.3 5.2,21.7 5.2,24.6 3.9,26 3.5,23.1 	"/>
	<polygon class="st0" points="44.5,36.8 41.7,39 44.2,41 45.4,38.6 	"/>
	<polygon class="st0" points="27.4,30.5 29.3,32.7 28.5,36.2 25.3,34.6 26.9,33.2 	"/>
	<polygon class="st0" points="26.3,44.9 27.4,42.4 25.2,41.5 23.8,43.6 24.5,44.9 	"/>
	<polygon class="st0" points="33.5,10.3 35.5,9.8 35.3,12.7 33.3,13.6 32.6,11.8 	"/>
	<polygon class="st0" points="12.8,30.3 13.9,32.5 12.4,33.9 11.9,31.6 	"/>
	<polygon class="st0" points="16.2,49.1 16.9,53.6 14.6,51 	"/>
	<polygon class="st0" points="44.6,4.2 43,6.5 44.2,7.4 49.8,6.7 48.7,5.1 46.4,5.1 	"/>
	<polygon class="st0" points="8.2,42.7 8.4,44.5 11.5,44.5 10.9,42.5 	"/>
	<polygon class="st0" points="14.2,20 15.5,22.3 18,20 16,19.1 	"/>
	<polygon class="st0" points="6.9,4.2 8.9,5.8 6,6.9 3.7,4.4 	"/>
	<polygon class="st0" points="33.5,42.6 34.6,44.8 37.7,43.5 37.3,41.9 	"/>
	<polygon class="st0" points="16.3,8.4 17,12.5 12.2,13.2 12,10.5 14.5,10 	"/>
	<polygon class="st0" points="26.3,14.3 26.3,16.6 24.3,16.6 	"/>
	<polygon class="st0" points="51.5,51.5 51.5,53.8 49.4,53.8 	"/>
	<polygon class="st0" points="26.8,3.2 25.3,5.4 27.2,5.6 27.9,5.1 27.6,3.7 	"/>
	<polygon class="st0" points="26.7,50.4 28,52.6 30.5,50.4 28.5,49.5 	"/>
</g>
</svg>
