<?xml version="1.0" encoding="utf-8"?>
<!-- Generator: Adobe Illustrator 16.0.0, SVG Export Plug-In . SVG Version: 6.00 Build 0)  -->
<!DOCTYPE svg PUBLIC "-//W3C//DTD SVG 1.1//EN" "http://www.w3.org/Graphics/SVG/1.1/DTD/svg11.dtd">
<svg version="1.1" id="Layer_1" xmlns="http://www.w3.org/2000/svg" xmlns:xlink="http://www.w3.org/1999/xlink" x="0px" y="0px"
	 width="20.789px" height="45px" viewBox="0 0 20.789 45" enable-background="new 0 0 20.789 45" xml:space="preserve">
	<clipPath id="clip">
		<path id="clip-path" d="M18.677,23.07c0,23.725-19.233,42.958-42.958,42.958c-23.725,0-42.958-19.233-42.958-42.958
	c0-23.725,19.233-42.958,42.958-42.958C-0.556-19.887,18.677-0.654,18.677,23.07z M-9,54h45V-9H-9V54z"/>
	</clipPath>
<path id="path" d="M18.677,23.07c0,23.725-19.233,42.958-42.958,42.958c-23.725,0-42.958-19.233-42.958-42.958
	c0-23.725,19.233-42.958,42.958-42.958C-0.556-19.887,18.677-0.654,18.677,23.07z M-9,54h45V-9H-9V54z"/>
</svg>
