<svg version="1.1" id="Layer_1" xmlns="http://www.w3.org/2000/svg" x="0" y="0" width="54.1" height="54.1" xml:space="preserve"><style>.st0,.st2{fill:none;stroke:#000;stroke-width:.3}.st2{stroke-width:.7;stroke-linecap:round}</style><path fill="none" d="M0 0H54.1V54.1H0z"/><path class="st2" d="M28.5 10.5L28.5 10.5M23.4 7.9L23.4 7.9M22.2 12.2L22.2 12.2M18.5 7.9L18.5 7.9M21.1 3.8L21.1 3.8M15.8 4.8L15.8 4.8M13.1 8.5L13.1 8.5M11 2.9L11 2.9M17.2 1.2L17.2 1.2M5.8 1.6L5.8 1.6M1.2 1.9L1.2 1.9M2.6 7.5L2.6 7.5M8.1 9.5L8.1 9.5M9.5 14.9L9.5 14.9M5.6 12.9L5.6 12.9M7.6 25.5L7.6 25.5M12.9 25.8L12.9 25.8M9.5 29.6L9.5 29.6M4.5 29.1L4.5 29.1M.9 26.4L.9 26.4M1.4 32.6L1.4 32.6M6.9 34L6.9 34M11 36.8L11 36.8M6.9 39.2L6.9 39.2M2 39.4L2 39.4M4.6 43.5L4.6 43.5M2.1 47.8L2.1 47.8M8.1 47L8.1 47M9.2 51.5L9.2 51.5M13 47.9L13 47.9M13.8 42.4L13.8 42.4M15.5 36L15.5 36M16.2 29.6L16.2 29.6M18.1 24.5L18.1 24.5M22.5 21.2L22.5 21.2M21.4 28.6L21.4 28.6M20.5 33.4L20.5 33.4M23.8 37.2L23.8 37.2M21.1 42.4L21.1 42.4M17.1 45.4L17.1 45.4M22.1 47L22.1 47M18.9 51.9L18.9 51.9M25.4 52.1L25.4 52.1M27.5 46.6L27.5 46.6M30.4 42.1L30.4 42.1M28.8 38.6L28.8 38.6M33.5 39.4L33.5 39.4M31.8 35L31.8 35M37.4 37.1L37.4 37.1M40.2 41.2L40.2 41.2M39.6 46.4L39.6 46.4M33.6 47.4L33.6 47.4M32.9 51.4L32.9 51.4M36.5 53.1L36.5 53.1M44.2 44.2L44.2 44.2M45.8 48.1L45.8 48.1M44.6 52.8L44.6 52.8M48.9 50.2L48.9 50.2M52.8 48.4L52.8 48.4M51.9 41.5L51.9 41.5M47.8 39.9L47.8 39.9M52.9 36.4L52.9 36.4M47.8 35.1L47.8 35.1M42.8 34.9L42.8 34.9M42.9 30.1L42.9 30.1M37.8 29.5L37.8 29.5M31.5 29.9L31.5 29.9M25.2 29.6L25.2 29.6M29.5 25.9L29.5 25.9M34 25.9L34 25.9M31.5 21.2L31.5 21.2M26.9 21.5L26.9 21.5M29.6 17.1L29.6 17.1M34.9 15L34.9 15M35.5 18.8L35.5 18.8M40.6 20.5L40.6 20.5M40.5 25.6L40.5 25.6M46.1 25L46.1 25M50.9 27.2L50.9 27.2M52.4 21.8L52.4 21.8M46.2 19.1L46.2 19.1M50.8 17L50.8 17M47.2 13L47.2 13M42.1 11.6L42.1 11.6M39.9 15.5L39.9 15.5M38.2 8.1L38.2 8.1M49.4 8.9L49.4 8.9M53.1 12.8L53.1 12.8M52.6 5.1L52.6 5.1M48.1 1.6L48.1 1.6M42.1 1.4L42.1 1.4M40.9 5.1L40.9 5.1M37.2 2L37.2 2M35.1 5L35.1 5M29.5 6.1L29.5 6.1M30.8 2.2L30.8 2.2M24.9 1.4L24.9 1.4M33.5 9L33.5 9M2.9 17.6L2.9 17.6M7.8 19.2L7.8 19.2M1.2 21.5L1.2 21.5M11.1 21.8L11.1 21.8M13.4 16.5L13.4 16.5M18.6 15.2L18.6 15.2M22.1 17.4L22.1 17.4"/><path class="st0" d="M4.8 48.1l-2.5 2 4 1.8c0 0 .8-2 0-2.5S4.8 48.1 4.8 48.1zM49.1 43.6c1 .5 2.8.8 2.2 2s-2.5 1-2.5 1L49.1 43.6zM37.5 48l5.2 1.6-.8 3L39.5 51C39.5 51 37.9 50.2 37.5 48zM49.6 19.9L49.6 22.4 47.4 22.4zM2.3 11L3.8 15.2.3 15.5zM44.7 28.3L46.7 32 50 30.5 47.7 28.5zM43.4 14.6L42.5 16.8 43.9 17.3 45.6 16.3 44.8 15zM23.6 23.7L25.4 23.7 25.4 27 21.8 25.7 22.3 24.1zM17.1 38.1L18.4 40.4 20.5 37.7zM34.6 31.2L37.8 33 36.4 34.1 34.9 32.8zM35.9 21.5L38.5 23.1 35.8 24.9 34 22.6 34.9 21.1zM3.1 34.3L5.5 35.8 4 36.9 1.3 36.9zM3 21.3L5.2 21.7 5.2 24.6 3.9 26 3.5 23.1zM44.5 36.8L41.7 39 44.2 41 45.4 38.6zM27.4 30.5L29.3 32.7 28.5 36.2 25.3 34.6 26.9 33.2zM26.3 44.9L27.4 42.4 25.2 41.5 23.8 43.6 24.5 44.9zM33.5 10.3L35.5 9.8 35.3 12.7 33.3 13.6 32.6 11.8zM12.8 30.3L13.9 32.5 12.4 33.9 11.9 31.6zM16.2 49.1L16.9 53.6 14.6 51zM44.6 4.2L43 6.5 44.2 7.4 49.8 6.7 48.7 5.1 46.4 5.1zM8.2 42.7L8.4 44.5 11.5 44.5 10.9 42.5zM14.2 20L15.5 22.3 18 20 16 19.1zM6.9 4.2L8.9 5.8 6 6.9 3.7 4.4zM33.5 42.6L34.6 44.8 37.7 43.5 37.3 41.9zM16.3 8.4L17 12.5 12.2 13.2 12 10.5 14.5 10zM26.3 14.3L26.3 16.6 24.3 16.6zM51.5 51.5L51.5 53.8 49.4 53.8zM26.8 3.2L25.3 5.4 27.2 5.6 27.9 5.1 27.6 3.7zM26.7 50.4L28 52.6 30.5 50.4 28.5 49.5z"/></svg>