<svg version="1.1" id="Layer_1" xmlns="http://www.w3.org/2000/svg" x="0" y="0" width="54.3" height="54.4" xml:space="preserve"><style>.st0,.st2{fill:none;stroke:#000;stroke-width:.3}.st2{stroke-width:.7;stroke-linecap:round}</style><path fill="none" d="M0.1 0.2H54.2V54.300000000000004H0.1z"/><path class="st0" d="M20.7 27.6l-2 2-2 .5V32c0 0 .5.8 1.2 1 .7.2 3.1.3 3.9-.5s.9-3.4.9-3.4L20.7 27.6zM20 26.2L19.2 24.8 17.6 24.4 16.6 26.8 18.2 27.4zM21.6 15.9L17 17.1 16.4 21.1 19.4 21.9 20.8 19.3 23 18.3zM30.1 5.1L28.6 2.5 25.6 3.3 26.2 7.4 30.9 8.6 32.3 6.1zM23.4 32.1l4 1.8c0 0 .8-2 0-2.5s-1.5-1.2-1.5-1.2L23.4 32.1zM21.9 4.5L19.9 4.5 18.4 5 17.9 6.8 21.9 8.3zM27.9 27.6L29.4 30.2 31.8 27.2zM18.8 37c.5-1.2-1.2-1.5-2.2-2l-.2 3C16.3 38 18.3 38.3 18.8 37zM40.4 24.9L41.9 23.6 38.4 21.6 38.7 23.4zM35.9 29.1L39.1 31.1 39.5 26.3 35.3 25.1 33.7 26.1zM32.9 34.6L35.9 32.6 33.1 30.8 31.9 30.4 30.9 32zM9.4 19.9c.4 2.2 2 3 2 3l2.4 1.6.8-3L9.4 19.9zM2.4 17.6l-2 1.2 2.2 1.8.8 2.5c0 0 2.5.2 2.8-1.2S4.4 17.9 2.4 17.6zM41.2 32.9L44.2 32.9 45.8 31.7 43.2 30.1zM36.7 37.6c0 0 1.2 2.2 2 2.2.8 0 2.6-1 3-2.4.4-1.4-1-2.6-1-2.6l-4-.6-2 2.6L36.7 37.6zM27.4 39.3l1.2 2.4c0 0 2.8 1.4 3.2-.4s-.4-3.2-.4-3.2L27 36.3l-1.4 2.6L27.4 39.3zM8.7 36.3c1 1.2 4.2 1 4.2 1l-.8-2.4-2.4-3.4C8.3 32.7 7.7 35.1 8.7 36.3zM21 35.3L21.6 37.3 22 40.5 23.4 38.9 23.4 35.7zM25.3 8.3L23.1 12.3 27.3 14.1 27.8 15.2 29.2 13.2 27.9 10.3zM17.1 15.1l3.4-2.2.2-3.1-6.2-2.4v2.4c0 0 1 1.9 1.7 2.2C16.9 12.3 17.1 15.1 17.1 15.1zM12.5 12.7L11.3 15.9 12.7 18.5 14.7 18.3 15.3 14.9zM36.9 22L35.5 20.6 33.9 20.6 32.5 19.4 30.9 22.4 32.9 24.8zM2.7 45.1L5.6 46.2 7.7 41.7 5.8 41.2 4.4 42 2.6 41.7zM36.2 9.2L34 7.6 32.8 11.4 34.5 13.8 36.2 12.4zM17.2 44.8L19.2 46.6 22.8 46.8 26 45.4 23.6 42.8 20.8 42.2 17.8 42.4zM31.9 43.1L34.7 45.3 36.1 42.7 35.1 40.7zM42.6 41.3L40.4 40.1 39.4 43.1 41.2 44.9 45.2 45.1 44.4 41.9zM50.9 31.8L48.8 29.4 48.2 32.4 46.4 33.9 50 35.7zM12.7 9.1L10.5 7.5 7.3 8.5 8.7 10.3 8.7 12.3zM7.7 28.3L10.7 29.9 13.9 28.7 11.5 25.3 7.5 24.1 6.5 25.9zM6.2 13.4L4.7 15.6 5.4 17.1 7.4 17.1 8.7 14.4zM.1 8.8L1.4 8.6 1.9 10.9 4.9 10.6 6.2 3.6 1.9 2.6.1 3.6M9.7.2L8.4 1.9 9.2 4.6 11.2 3.9 13.4 6.4 14.2 3.1 11.4.2M6.9.2L6.9 1.4 4.7 1.4 5.7.2M.1 28.4L1.7 28.4 4.4 25.9.1 22.4M.1 16.7L1.6 16.4 1.6 13.1.1 12.3M2.6 31L3.3 33 5.6 32 5.8 28.8 3.6 29.3zM.1 33.9L2.2 35.4 1.7 38.9.1 38.2M3.7 38.9L7.2 38.6 5.7 34.4zM22.8 20L21.6 23 24.3 23.5 25.6 26 30.1 23.3 26.8 19.3zM50.7 3.9L47.2 1.6 42.9 1.3 41.7 4.3 45.7 5.1 46.9 7.4zM14.8.2L14.9.9 20.9 2.9 21.4.6 21.1.2M47.4 48.4L46.2 45.9 45.2 47.4 45.7 49.9zM.1 1.3L3.2.9 3.1.2M27.6.2L26.4 1.1 22.9.6 23.2.2M34.6.2L34.7 1.9 34.2 4.9 37.7 6.1 39.9 3.1 38.1.2M32.4 3.9L31.9.4 30.7 1.9zM43.9 7.4L40.6 6.2 38.6 7.4 37.9 9.4 38.9 12.4 42.6 11.7zM36.4 17.6L35.2 15.9 32.7 15.9 30.7 14.9 28.9 17.4 30.2 18.4zM44.9 20.6L44.9 17.9 43.2 16.4 44.4 13.6 38.2 15.1 38.4 18.1 40.9 20.4zM4.6 49.2L5.3 51.2 9.1 51.5 12.3 50.7 11.8 47.7 9.1 46zM12.7 45L12.9 47 16.4 47 15.7 44.7zM20.4 49.4L21.9 51.9 24.6 49.4 22.4 48.4zM29.7 52.6L32.9 51.9 34.2 48.1 31.9 45.1 27.9 43.9 26.7 47.9zM36.2 45.9L38.2 49.6 41.4 48.1 39.2 46.1zM49.9 44.9L52.2 39.4 48.7 37.4 44.9 38.4 46.7 42.1zM50.9 11.4L48.7 9.6 45.2 9.9 47.7 12.6zM9.9 40.4L11.4 43.4 15.7 41.6 15.2 39.4zM49.9 23.1L52.7 19.9 50.7 17.6 49.7 14.9 46.2 16.1 47.2 21.4zM50.2 26.9L47.7 24.4 44.4 23.1 42.9 25.6 46.7 28.4zM.1 49.2L1.2 48.4 1.4 45.9.1 46M42.7 50.4L40.4 52.4 44.2 53.4 48.7 51.9zM54.2 3.6L52.1 4.9 52.8 9.1 54.2 8.8M54.2 22.4L53.8 22.1 52.6 25.1 51.8 28.4 54.2 28.4M54.2 12.3L52.7 11.4 51.7 14.1 52.4 17.1 54.2 16.7M54.2 33.9L52.8 32.9 53.3 37.9 54.2 38.2M54.2 1.3L52.1 1.6 51.9.2M9.7 54.3L10.4 53.2 11.4 54.3M5.7 54.3L6.9 53 6.9 54.3M21.1 54.3L18.4 50.2 13.9 50.5 14.8 54.3M.1 52.3L.4 52.2 2.4 50.5 3.1 54.3M23.2 54.3L25.7 50.7 27.2 51.7 27.7 54.2 27.6 54.3M34.6 54.3L34.4 52.5 36.2 51.2 38.1 54.3M54.2 52.3L51.8 52.7 51.9 54.3M54.2 46L51.8 46.4 49.1 49.4 52.3 50.6 54.2 49.2M6.9.2L5.7.2"/><path class="st2" d="M7.4 5.5L7.4 5.5M7.2 2.7L7.2 2.7M10.7 6L10.7 6M2.9 1.7L2.9 1.7M13.1 8L13.1 8M15.9 5.7L15.9 5.7M15.4 2.5L15.4 2.5M18.4 3.5L18.4 3.5M6.6 10.4L6.6 10.4M2.2 12.2L2.2 12.2M4.3 13.7L4.3 13.7M2.9 16.1L2.9 16.1M5.9 18.6L5.9 18.6M12.8 11.4L12.8 11.4M10.3 13.4L10.3 13.4M9.6 17.2L9.6 17.2M11.2 19L11.2 19M7.8 21.1L7.8 21.1M9.8 23.4L9.8 23.4M5.3 24.6L5.3 24.6M1.7 22.1L1.7 22.1M14.4 26.6L14.4 26.6M16.2 23.1L16.2 23.1M15.1 20L15.1 20M22.4 1.5L22.4 1.5M23.7 4.4L23.7 4.4M24.2 7.5L24.2 7.5M22.7 10L22.7 10M21.7 13.6L21.7 13.6M19.1 15.5L19.1 15.5M25.3 14.7L25.3 14.7M25.8 18.1L25.8 18.1M28.8 19.2L28.8 19.2M30.1 21.2L30.1 21.2M29.2 15.2L29.2 15.2M30.9 12.7L30.9 12.7M29.2 9.7L29.2 9.7M31.4 9.9L31.4 9.9M33.3 6.6L33.3 6.6M33.4 1.9L33.4 1.9M36.5 6.7L36.5 6.7M37.1 8.7L37.1 8.7M33.1 14.6L33.1 14.6M37.7 12.4L37.7 12.4M35.9 14.4L35.9 14.4M37.1 16.4L37.1 16.4M39.5 13.7L39.5 13.7M43.3 12.7L43.3 12.7M46 12.7L46 12.7M45.3 15.1L45.3 15.1M34.3 19.3L34.3 19.3M37.2 19.4L37.2 19.4M39.5 20.9L39.5 20.9M42.3 22L42.3 22M36.4 24L36.4 24M38.7 24.9L38.7 24.9M40.9 26L40.9 26M40.8 28.7L40.8 28.7M43.9 28.5L43.9 28.5M46.5 30.3L46.5 30.3M50.1 28.5L50.1 28.5M52.6 30.9L52.6 30.9M48.5 23.7L48.5 23.7M50.8 25.2L50.8 25.2M48.3 13.9L48.3 13.9M50.8 12.7L50.8 12.7M51.1 15.6L51.1 15.6M53 18.4L53 18.4M52.6 22.1L52.6 22.1M51.5 34.3L51.5 34.3M51.5 37.2L51.5 37.2M47.8 36.2L47.8 36.2M45.3 33.5L45.3 33.5M45.3 36L45.3 36M42.6 34.5L42.6 34.5M40.8 30.9L40.8 30.9M37.9 32.5L37.9 32.5M40 33.8L40 33.8M35.3 34.3L35.3 34.3M43.1 37.1L43.1 37.1M41.4 39.2L41.4 39.2M44 39.7L44 39.7M45.5 41.7L45.5 41.7M46.8 44.4L46.8 44.4M52.7 42.2L52.7 42.2M52.3 44.7L52.3 44.7M49.3 46.5L49.3 46.5M44.1 46.4L44.1 46.4M41.3 46.4L41.3 46.4M39.1 44.5L39.1 44.5M36.4 44.8L36.4 44.8M37.9 41.7L37.9 41.7M36.4 39.4L36.4 39.4M33.7 40.2L33.7 40.2M33.5 37.3L33.5 37.3M32.1 35.7L32.1 35.7M30.3 36.5L30.3 36.5M43 48.5L43 48.5M48.1 50.2L48.1 50.2M52.7 51.6L52.7 51.6M49.1 53.1L49.1 53.1M40.9 50.1L40.9 50.1M37.4 50.5L37.4 50.5M34.8 47.4L34.8 47.4M34.8 50.7L34.8 50.7M33 44.9L33 44.9M29.7 43.4L29.7 43.4M32.9 53.3L32.9 53.3M28.3 52L28.3 52M26.3 49.7L26.3 49.7M25 47.5L25 47.5M26.4 43.4L26.4 43.4M26.5 40.7L26.5 40.7M24.6 38.9L24.6 38.9M24.1 41.9L24.1 41.9M16.8 42.2L16.8 42.2M13.8 43.8L13.8 43.8M17.6 46.8L17.6 46.8M21.3 48L21.3 48M19.3 49.5L19.3 49.5M23.8 51.7L23.8 51.7M21.5 53.4L21.5 53.4M15.3 48L15.3 48M13.4 49.7L13.4 49.7M11.5 46.3L11.5 46.3M12.6 52.9L12.6 52.9M9.4 52.4L9.4 52.4M4.6 52L4.6 52M1.4 50L1.4 50M3.1 47.4L3.1 47.4M6.7 46.7L6.7 46.7M38.9 53L38.9 53M45.6.4L45.6.4M50.2 1.7L50.2 1.7M53.6 2.9L53.6 2.9M45.8 22.2L45.8 22.2M39.8 5.4L39.8 5.4M40.3 1.4L40.3 1.4M43.5 5.9L43.5 5.9M45.7 8L45.7 8M50.3 8.5L50.3 8.5M50.4 6.4L50.4 6.4M52.9 10.2L52.9 10.2M30.9 4L30.9 4M28.8 1L28.8 1M21.4 20.4L21.4 20.4M20.1 23.2L20.1 23.2M23.2 24.9L23.2 24.9M21.2 26.6L21.2 26.6M23.9 28.1L23.9 28.1M16.8 28.9L16.8 28.9M14.1 30.2L14.1 30.2M5.2 27.7L5.2 27.7M1.7 30L1.7 30M1.8 33.4L1.8 33.4M3.8 35.1L3.8 35.1M7.1 33.9L7.1 33.9M7.6 30.7L7.6 30.7M11.9 32.5L11.9 32.5M15.4 32.7L15.4 32.7M14.1 35L14.1 35M14.6 38L14.6 38M7.9 37.1L7.9 37.1M10.4 39.2L10.4 39.2M7.4 40.4L7.4 40.4M3.6 40.6L3.6 40.6M.8 40.1L.8 40.1M1.1 44.1L1.1 44.1M9.1 44.1L9.1 44.1M18.6 34.5L18.6 34.5M22.6 34.1L22.6 34.1M20.1 37.1L20.1 37.1M20.2 41L20.2 41M17.4 39.6L17.4 39.6M26.9 28.6L26.9 28.6M28.8 25.9L28.8 25.9M28.8 31.4L28.8 31.4M33.2 29.2L33.2 29.2M35.6 30.7L35.6 30.7M30.6 34.4L30.6 34.4M27.7 35.2L27.7 35.2M25.2 35.7L25.2 35.7M31.9 25.7L31.9 25.7M23.6 16.6L23.6 16.6"/></svg>