<svg version="1.1" id="Layer_1" xmlns="http://www.w3.org/2000/svg" x="0" y="0" width="49.7" height="49.7" xml:space="preserve"><style>.st1{fill:none;stroke:#000;stroke-width:.7;stroke-linecap:round}</style><path fill="none" d="M0 0H49.7V49.7H0z"/><path class="st1" d="M14.5 1.9L14.5 1.9M14.5 4.7L14.5 4.7M14 7.1L14 7.1M10 7.3L10 7.3M16.6 14.3L16.6 14.3M9.1 17.9L9.1 17.9M16.6 18.5L16.6 18.5M20.5 18.5L20.5 18.5M21.6 15.9L21.6 15.9M20.2 12.4L20.2 12.4M23.5 13.5L23.5 13.5M23.5 10.2L23.5 10.2M21.9 7.9L21.9 7.9M22.3 4.7L22.3 4.7M21.4 2.2L21.4 2.2M23.5.7L23.5.7M28.6 4.7L28.6 4.7M31.4 4.5L31.4 4.5M29.3 9.1L29.3 9.1M32.4 9.7L32.4 9.7M32.4 13.1L32.4 13.1M26.9 14.2L26.9 14.2M34.7 9.1L34.7 9.1M37.8 7.4L37.8 7.4M39 .4L39 .4M46.6 1L46.6 1M46.9 6.9L46.9 6.9M44.3 8.3L44.3 8.3M45 10.7L45 10.7M44.2 13.5L44.2 13.5M44.3 15.4L44.3 15.4M46.9 14.5L46.9 14.5M4.8 35.9L4.8 35.9M5 37.4L5 37.4M1.6 37.4L1.6 37.4M6.7 44L6.7 44M.7 46.8L.7 46.8M7.6 48.8L7.6 48.8M12.8 45L12.8 45M11.2 42.8L11.2 42.8M13.5 39.7L13.5 39.7M8.5 42.6L8.5 42.6M11.2 37.6L11.2 37.6M13.3 35L13.3 35M10.2 35L10.2 35M11.2 32.4L11.2 32.4M22.4 34.9L22.4 34.9M18.8 37.3L18.8 37.3M22.1 38.3L22.1 38.3M21.4 40.5L21.4 40.5M17.9 43.8L17.9 43.8M24.8 38.6L24.8 38.6M28.8 34.9L28.8 34.9M30 30.7L30 30.7M34.7 35.4L34.7 35.4M35.5 32.8L35.5 32.8M38 32.3L38 32.3M38 37.3L38 37.3M35.4 38.6L35.4 38.6M33 41.4L33 41.4M38.1 40L38.1 40M40.2 42.3L40.2 42.3M14.1 15.4L14.1 15.4M26.9 16.9L26.9 16.9M32.8 18.6L32.8 18.6M38.1 19.2L38.1 19.2M35.4 17.3L35.4 17.3M35.9 20.2L35.9 20.2M43.1 24.3L43.1 24.3M39.2 26.7L39.2 26.7M33.3 25.5L33.3 25.5M33.1 28.3L33.1 28.3M33.1 30.4L33.1 30.4M40.7 31.7L40.7 31.7M43.5 33.6L43.5 33.6M47.3 30L47.3 30M42.6 26.7L42.6 26.7M22.4 32.3L22.4 32.3M18.7 27.9L18.7 27.9M20.5 24.3L20.5 24.3M7.2 18.8L7.2 18.8M4.1 21.6L4.1 21.6M1.7 24.2L1.7 24.2M11.7 28.8L11.7 28.8M9.7 23.3L9.7 23.3M18.3 20.7L18.3 20.7M28.6 21.6L28.6 21.6M25.7 21.6L25.7 21.6M21.1 27.3L21.1 27.3M4.5 14L4.5 14M6.7 12.8L6.7 12.8M8.1 16L8.1 16M2.1 17.6L2.1 17.6M44.3 20.2L44.3 20.2M48 20.4L48 20.4M1 6L1 6M12.3 4.5L12.3 4.5M2.6 4L2.6 4M8.8 9.7L8.8 9.7M12.8 13.1L12.8 13.1M14.7 25.4L14.7 25.4M.5 30.4L.5 30.4M48 45.2L48 45.2M39.7 47.4L39.7 47.4M28 46.8L28 46.8M3.1 41.2L3.1 41.2M18.3 40.9L18.3 40.9M25.7 33.3L25.7 33.3M6 27.6L6 27.6M36.1 26.1L36.1 26.1M44.7 31.4L44.7 31.4M35.4 45.5L35.4 45.5M27.6 25.9L27.6 25.9M19 9.1L19 9.1M13.6 18.1L13.6 18.1M8.1 1L8.1 1M38.1 2.4L38.1 2.4M33.1 47.4L33.1 47.4M2.6 28L2.6 28M47.4 9L47.4 9M16 9.5L16 9.5M12.9 10.7L12.9 10.7M10.2 11.7L10.2 11.7M3.5 7.6L3.5 7.6M4.8 1.7L4.8 1.7M9.8 5.5L9.8 5.5M17.8 4.7L17.8 4.7M25.5 5L25.5 5M25.9 2.8L25.9 2.8M30 .9L30 .9M35.4 6L35.4 6M24.7 7.4L24.7 7.4M27.1 10.2L27.1 10.2M17.1 12.3L17.1 12.3M5 19L5 19M11 21.7L11 21.7M7.2 22.9L7.2 22.9M3.6 25.4L3.6 25.4M2.2 14L2.2 14M14.1 21.1L14.1 21.1M12.1 24.3L12.1 24.3M11 26.7L11 26.7M8.8 28.3L8.8 28.3M8.8 31.9L8.8 31.9M15.9 33.6L15.9 33.6M7.6 37.4L7.6 37.4M10.7 40.2L10.7 40.2M4.1 43.6L4.1 43.6M1.6 42.6L1.6 42.6M6.2 46.8L6.2 46.8M9.3 47.8L9.3 47.8M15 48.7L15 48.7M15.9 45.2L15.9 45.2M15.4 41.2L15.4 41.2M16.7 39.5L16.7 39.5M18.1 32.8L18.1 32.8M17.8 29.8L17.8 29.8M22.3 21.2L22.3 21.2M23.6 18.5L23.6 18.5M30.2 17.1L30.2 17.1M29.7 14.2L29.7 14.2M19.2 15.2L19.2 15.2M35.9 15L35.9 15M29.8 12.1L29.8 12.1M34.9 12.3L34.9 12.3M41.1 11.7L41.1 11.7M40.2 9.5L40.2 9.5M41.1 7.3L41.1 7.3M40.5 5L40.5 5M41.4 3.1L41.4 3.1M46.6 4L46.6 4M43.8 6.2L43.8 6.2M41.6 16.2L41.6 16.2M38.3 16.2L38.3 16.2M38.3 12.8L38.3 12.8M44.9 17.6L44.9 17.6M41.1 21.1L41.1 21.1M36.4 22.4L36.4 22.4M32.8 23.1L32.8 23.1M30.5 26.9L30.5 26.9M23.5 28.5L23.5 28.5M27.6 31.6L27.6 31.6M31.6 35.9L31.6 35.9M32.1 39L32.1 39M29 40.9L29 40.9M27.6 43.1L27.6 43.1M24.8 43.1L24.8 43.1M25.2 36.2L25.2 36.2M20.9 42.8L20.9 42.8M21.7 47.1L21.7 47.1M25.9 48.1L25.9 48.1M43.5 39.2L43.5 39.2M41.4 34.9L41.4 34.9M37.6 34.7L37.6 34.7M37.8 28.6L37.8 28.6M43.1 29L43.1 29M47.8 33.3L47.8 33.3M48 37.3L48 37.3M43.8 42.4L43.8 42.4M48.5 40.7L48.5 40.7M44.7 45L44.7 45M45.4 46.9L45.4 46.9M43.1 48.3L43.1 48.3M36.4 48L36.4 48M30.9 45.7L30.9 45.7M19.7 49L19.7 49M1.4 20L1.4 20M9.1 3.3L9.1 3.3M48.5 23.6L48.5 23.6M49.2 28.3L49.2 28.3M2.1 35L2.1 35M47.6 18.1L47.6 18.1M46.6 42.4L46.6 42.4M.4 39.7L.4 39.7M1.9 49L1.9 49M49.1 16L49.1 16M.9 11.4L.9 11.4M12.4 8.6L12.4 8.6M20.2 6.7L20.2 6.7M18.5 2.4L18.5 2.4M27.8 6.9L27.8 6.9M31.9 6.9L31.9 6.9M32.6 15.5L32.6 15.5M37.8 4.5L37.8 4.5M44.2 4.3L44.2 4.3M43.3 1.2L43.3 1.2M48 12.3L48 12.3M5.5 32.3L5.5 32.3M3.5 39L3.5 39M2.2 45.2L2.2 45.2M12.3 48L12.3 48M14.5 43.3L14.5 43.3M14.5 31.1L14.5 31.1M19.7 35L19.7 35M25.2 41.2L25.2 41.2M23.6 45.9L23.6 45.9M28.8 37.8L28.8 37.8M36.1 41.1L36.1 41.1M34.2 43.5L34.2 43.5M38 44.9L38 44.9M17.4 16.7L17.4 16.7M24.3 15.9L24.3 15.9M29.3 19.3L29.3 19.3M35.9 29.5L35.9 29.5M46.2 35.5L46.2 35.5M32.6 32.8L32.6 32.8M25.5 30.5L25.5 30.5M11.7 19.5L11.7 19.5M7.8 25.2L7.8 25.2M45.5 22.3L45.5 22.3M5 10.7L5 10.7M5.9 3.5L5.9 3.5M2.4 1.6L2.4 1.6M45.9 25.5L45.9 25.5M30.4 43.3L30.4 43.3M17.8 48.1L17.8 48.1M15.2 28.6L15.2 28.6M28.6 23.6L28.6 23.6M45.7 27.8L45.7 27.8M36.7 10.2L36.7 10.2M26.2 12.1L26.2 12.1M9 13.6L9 13.6M34.2 2.9L34.2 2.9M40.7 14.2L40.7 14.2M46.6 39.3L46.6 39.3M3.6 48L3.6 48M1.9 9L1.9 9M11.7 1.7L11.7 1.7M29.3 2.9L29.3 2.9M1.9 21.9L1.9 21.9M5.2 17.1L5.2 17.1M2.2 32.4L2.2 32.4M8.5 35.8L8.5 35.8M6.9 41.1L6.9 41.1M9.3 45.2L9.3 45.2M15.2 36.6L15.2 36.6M23.5 23.3L23.5 23.3M17.9 23.3L17.9 23.3M25.7 19.5L25.7 19.5M42.3 18.5L42.3 18.5M40.5 39.2L40.5 39.2M40.5 29.2L40.5 29.2M38.5 24.3L38.5 24.3M47.8 48.5L47.8 48.5M41.9 45.2L41.9 45.2M30.7 49L30.7 49M16.9.5L16.9.5M19.5 46.1L19.5 46.1M24 25.5L24 25.5M27.3 28.1L27.3 28.1M40.7 22.9L40.7 22.9M5 29.5L5 29.5M7.1 6.2L7.1 6.2M31.9 21L31.9 21M11.2 15.4L11.2 15.4M16.7 7.1L16.7 7.1M4.7 5.7L4.7 5.7M4.5 23.3L4.5 23.3M15.2 22.9L15.2 22.9M20.5 30.4L20.5 30.4M43.6 36.9L43.6 36.9M14.8 46.8L14.8 46.8M34.3.7L34.3.7M49.2 43.3L49.2 43.3M48.7 2.6L48.7 2.6M49.3 34.7L49.3 34.7M48.7 7.4L48.7 7.4M49 26.2L49 26.2M27.4 1L27.4 1M14.5 1.9L14.5 1.9M21.9 7.9L21.9 7.9M46.9 14.5L46.9 14.5M29.5 33.1L29.5 33.1M21.4 40.5L21.4 40.5M38 37.3L38 37.3M8.6 21.3L8.6 21.3M6.6 9.2L6.6 9.2M15 12.8L15 12.8M23.6 18.5L23.6 18.5M34.9 12.3L34.9 12.3M41.4 3.1L41.4 3.1M31.2 24.6L31.2 24.6M49.2 28.3L49.2 28.3M7.3 33.9L7.3 33.9M9.3 45.2L9.3 45.2M30.7 49L30.7 49M40.7 22.9L40.7 22.9M17.3 25.6L17.3 25.6M49.2 43.3L49.2 43.3"/></svg>