<svg version="1.1" id="Layer_1" xmlns="http://www.w3.org/2000/svg" x="0" y="0" width="53.6" height="53.6" xml:space="preserve"><style>.st0{fill:none;stroke:#000;stroke-width:.3}</style><path fill="none" d="M0 0H53.6V53.6H0z"/><path class="st0" d="M3.8 1.3L0 1.3M6.4 1.3L12.7 1.3M15.3 1.3L21.6 1.3M24.2 1.3L30.6 1.3M33.1 1.3L39.5 1.3M42 1.3L48.4 1.3M53.6 1.3L50.9 1.3M8.1 4.4L1.7 4.4M17 4.4L10.7 4.4M25.9 4.4L19.6 4.4M34.9 4.4L28.5 4.4M43.8 4.4L37.4 4.4M46.3 4.4L52.7 4.4M0 7.4L2 7.4M11 7.4L4.6 7.4M13.5 7.4L19.9 7.4M22.4 7.4L28.8 7.4M31.4 7.4L37.7 7.4M40.3 7.4L46.6 7.4M49.2 7.4L53.6 7.4M7.3 10.2L.9 10.2M16.2 10.2L9.9 10.2M25.1 10.2L18.8 10.2M34.1 10.2L27.7 10.2M43 10.2L36.6 10.2M45.5 10.2L51.9 10.2M1.7 13.1L0 13.1M4.3 13.1L10.7 13.1M19.6 13.1L13.2 13.1M22.1 13.1L28.5 13.1M31 13.1L37.4 13.1M40 13.1L46.3 13.1M48.9 13.1L53.6 13.1M5.2 16.1L0 16.1M14.2 16.1L7.8 16.1M23.1 16.1L16.7 16.1M25.6 16.1L32 16.1M34.5 16.1L40.9 16.1M43.5 16.1L49.8 16.1M53.6 16.1L52.4 16.1M2.2 19.3L0 19.3M11.1 19.3L4.8 19.3M13.7 19.3L20 19.3M29 19.3L22.6 19.3M37.9 19.3L31.5 19.3M46.8 19.3L40.4 19.3M53.6 19.3L49.3 19.3M6.7 22.2L.3 22.2M15.6 22.2L9.2 22.2M24.5 22.2L18.1 22.2M27.1 22.2L33.4 22.2M36 22.2L42.3 22.2M44.9 22.2L51.3 22.2M3.5 25.2L0 25.2M6 25.2L12.4 25.2M21.3 25.2L15 25.2M30.2 25.2L23.9 25.2M32.8 25.2L39.2 25.2M41.7 25.2L48.1 25.2M50.6 25.2L53.6 25.2M7.9 28L1.6 28M16.9 28L10.5 28M25.8 28L19.4 28M28.3 28L34.7 28M43.6 28L37.2 28M46.2 28L52.5 28M3 31.1L0 31.1M11.9 31.1L5.6 31.1M14.5 31.1L20.8 31.1M23.4 31.1L29.8 31.1M32.3 31.1L38.7 31.1M41.2 31.1L47.6 31.1M50.1 31.1L53.6 31.1M6.8 34.3L.5 34.3M15.8 34.3L9.4 34.3M24.7 34.3L18.3 34.3M27.2 34.3L33.6 34.3M42.5 34.3L36.1 34.3M45 34.3L51.4 34.3M0 37.2L2.2 37.2M4.8 37.2L11.1 37.2M20 37.2L13.7 37.2M22.6 37.2L29 37.2M31.5 37.2L37.9 37.2M40.4 37.2L46.8 37.2M49.3 37.2L53.6 37.2M6 40.2L0 40.2M15 40.2L8.6 40.2M23.9 40.2L17.5 40.2M26.4 40.2L32.8 40.2M35.3 40.2L41.7 40.2M44.3 40.2L50.6 40.2M53.6 40.2L53.2 40.2M0 43L3.1 43M12.1 43L5.7 43M14.6 43L21 43M23.6 43L29.9 43M32.5 43L38.8 43M47.8 43L41.4 43M50.3 43L53.6 43M8.3 46.1L1.9 46.1M17.2 46.1L10.8 46.1M26.1 46.1L19.7 46.1M35 46.1L28.6 46.1M37.6 46.1L43.9 46.1M46.5 46.1L52.9 46.1M4.7 49.1L0 49.1M7.3 49.1L13.7 49.1M16.2 49.1L22.6 49.1M25.1 49.1L31.5 49.1M34.1 49.1L40.4 49.1M43 49.1L49.3 49.1M51.9 49.1L53.6 49.1M8.6 52.1L2.2 52.1M17.5 52.1L11.1 52.1M26.4 52.1L20 52.1M35.3 52.1L29 52.1M44.3 52.1L37.9 52.1M53.2 52.1L46.8 52.1"/></svg>