<svg version="1.1" id="Layer_1" xmlns="http://www.w3.org/2000/svg" x="0" y="0" width="65.3" height="65.2" xml:space="preserve"><style>.st0,.st1{fill:none;stroke:#000;stroke-width:.3}.st1{stroke-width:.6}</style><path fill="none" d="M0 0H65.2V65.2H0z"/><path class="st1" d="M44.9 61c2.6 0 7 .4 8.5.5 1.8.1 5-.2 7.5-.3M44.9 61c-.7 0-1.2 0-1.6 0M52.4 2.5c-1.9 0-3.6.1-5 .1M47.5 2.6c-1 .1-1.7.1-2.1.2C44.9 2.9 44.5 3 44 3.1M44 3.1c-3.1.4-8.3.5-9.5.5M58.1 2.5c-1.7 0-3.7 0-5.7 0M60.1 2.5c.8 0 1.5 0 1.9 0M58.1 2.5c.7 0 1.4 0 2 0M62 2.5c.4 0 .7 0 .7 0 .6 0 1.5 0 2.5 0M51.6 9.2c.9 0 2 0 3.1 0M49.4 9.3c.5 0 1.3 0 2.3 0M61.8 9.6c-.4 0-2.7-.1-5.3-.3M54.8 9.2c.4 0 .9 0 1.4 0 .1 0 .2 0 .3 0M61.8 9.6C61.8 9.6 61.8 9.6 61.8 9.6c1.1 0 2.3.1 3.5.1M60.2 16.9c-1 0-2.5 0-4 .1-2.9.2-7.2-.1-8.9 0M60.2 16.9c1 0 1.6.1 1.6.1 1-.1 2.1-.1 3.4-.2M43 22.1c1.8 0 3.6.1 5.2.1 4.7.2 13.4-.1 13.4-.1 1.2.1 2.6.2 3.7.2M34.7 22.2c1.2-.2 4.7-.2 8.3-.1M23.5 29.9c1-.2 6.1-.2 9.4-.5s10.7.2 16 .4c.7 0 1.4.1 2.2.1M52 30c-.3 0-.6 0-.9-.1M60.7 30.9C59 30.7 55.4 30.3 52 30M64.7 31.1c-.7 0-1.4 0-2 0M61.5 31c-.2 0-.5-.1-.8-.1M62.7 31.1c-.4 0-.7 0-.9-.1 0 0-.1 0-.3 0M64.7 31.1c.2 0 .4 0 .6 0M39.9 35.2c1.1-.2 4.5-.2 6.2-.3 1.7-.1 6.2.2 8.7.3 2.5.1 7.7.3 7.7.3.7-.1 1.7 0 2.8 0M35.6 49c.9-.2 2.8.1 6.2 0 3.3-.2 8.7-.5 12.1-.8s8.9-.3 8.9-.3c.6 0 1.5 0 2.5 0M64.1 55.1c-.7 0-1.3 0-2-.1M64.1 55.1c.4 0 .7 0 1.1 0M61 55c-1.1-.1-2.9-.2-4-.1-1.7.2-7.4-.5-8.1-.3M62.2 55.1c-.1 0-.2 0-.4 0 0 0-.3 0-.8-.1M61.3 61c1.1-.1 2.5-.1 4-.2M54.6 42.3c.5 0 1.5 0 2.5 0 1.1 0 4.4-.5 4.4-.5 1 0 2.3 0 3.7.1M24.7 3.1c-.8 0-1.7 0-2.4-.1M22.2 3.1c-.8 0-1.5 0-2.1-.1-1.9-.1-7.3-.2-12.5-.3M31.1 3.4c-.7-.1-1.8-.2-3.2-.2M27.8 3.2c-1 0-2.1-.1-3.2-.1M7.7 2.7c-1.1 0-2.2 0-3.3-.1M0 2.6c1.1 0 2.3 0 3.6.1M4.4 2.6c-.3 0-.5 0-.8 0M38.9 8.9c2.2.3 4 .1 5.8.1M7.3 10C4.8 9.9 2.3 9.8 0 9.7M36.5 8.7c.8 0 1.4.1 1.9.1.2 0 .3.1.5.1M36.5 8.7c-2.9 0-7.4.4-10.2.3-3.6-.2-5.2 0-9.6.8-2.2.4-5.7.4-9.4.3M0 16.8c7.8-.3 19.9-.4 22.6 0 .2 0 .5.1.8.1M40.7 16.8c-.9-.2-5.7-.2-7.3.1-1.5.3-6.6.3-9.9-.1M10.7 22.1c-.6.1-1.4.2-2.4.2-2.9.2-5.6-.3-6.5-.2-.4.1-1 .1-1.8.1M29.7 22.2c-6.3.3-11.2.5-14.6-.1-1.9-.3-2.7-.1-4.4.1M13 31.2c1.5 0 3.2-.2 4.8-.4M6.4 31.1c.3 0 .5 0 .8 0M5.5 31.1c.3 0 .6 0 .9 0M17.8 30.8c.2 0 .4-.1.6-.1M9.9 31.2c1 0 2 0 3.1 0M7.2 31.1c.8 0 1.7.1 2.7.1M5.5 31.1c-.2 0-.5 0-.7 0-1.5 0-3.2 0-4.8.1M34.5 35.2c-3.4 0-9.6-.3-14.1-.3M4.7 35.7c.7 0 1.4 0 2.2 0 5 0 6.6-.1 9-.6.8-.1 2.4-.2 4.5-.2M3.6 35.7c-1.4 0-2.6-.1-3.6-.1M3.6 35.7c.3 0 .7 0 1.1 0M1.8 48c-.5 0-1 0-1.5 0M31.1 48.9c-1.4-.2-5.3-.3-8.5-.4M2.6 48.1c-.3 0-.6 0-.8 0M21.2 48.5c.4 0 .8 0 1.3 0M2.6 48.1c6.1.1 15 .3 17.5.4.4 0 .7 0 1.1 0M23.9 54.4c-2.2 0-3.9.2-7.2.8-.3 0-.6.1-.9.1M15.8 55.3C12 55.8 5.4 55.4 0 55.2M23.9 54.4c.7 0 1.5 0 2.4.1 3.6.2 9.8-.6 12.1-.1 2.4.5 4.4.1 6.3.1M35.9 60.8c.5 0 1.1 0 1.6 0M0 60.9c7.8-.3 19.5-.3 22.1 0 3.1.5 9 .5 10.6.2.7-.1 1.9-.2 3.2-.2M37.5 60.8c1.2 0 2.2 0 2.6.1M26.8 41.7c-.3 0-.5 0-.8 0M29.6 41.8c.9 0 1.7.1 2.2.2 2.8.4 9.2.4 13.8-.2 3.3-.4 3.9-.4 5-.2M7.3 42.4c.4 0 .8 0 1.1 0 2.9 0 5-.1 7.4-.4 1.5-.2 6.2-.3 10.2-.3M52.5 42c-.9-.1-1.4-.3-1.9-.3M7.3 42.4c-2-.1-4.8-.3-7.3-.5M28.5 41.8c-.5 0-1.1 0-1.7 0M29.6 41.8c-.3 0-.7 0-1.1 0"/><path class="st0" d="M2.8 61.4L2.8 65.2M1.1 61.5L1.1 65.2M3.6 61.4L3.6 65.2M4.4 61.4L4.4 65.2M5.3 61.4L5.3 65.2M26.3 61.8L26.3 65.2M27.1 62L27.1 65.2M27.8 61.9L27.8 65.2M28.8 61.9L28.8 65.2M7.7 61.4L7.7 65.2M9.5 61.3L9.5 65.2M11.9 61.3L11.9 65.2M42.8 61.7L42.8 65.2M45.7 61.7L45.7 65.2M46.7 61.5L46.7 65.2M41.3 61.7L41.3 65.2M39 61.5L39 65.2M51.5 61.7L51.5 65.2M49.4 61.6L49.4 65.2M48.3 61.5L48.3 65.2M47.5 61.3L47.5 65.2M53.8 61.8L53.8 65.2M55.6 61.8L55.6 65.2M52.4 61.8L52.4 65.2M24.7 61.8L24.7 65.2M35.4 61.5L35.4 65.2M36.2 61.4L36.2 65.2M37 61.4L37 65.2M38 61.5L38 65.2M19.8 54.4L19.8 49.1M20.4 54.4L20.4 49.3M21.3 49.1L21.3 54.4M17.9 54.4L17.9 49.2M23.9 54.4L23.9 49.3"/><path class="st1" d="M23.9 54.4L23.9 54.4"/><path class="st0" d="M22.1 49.1L22.1 54.2M30.7 61.9L30.7 65.2M33.8 61.6L33.8 65.2M60.1 61.9L60.1 65.2M62 61.7L62 65.2M1.9 49L1.9 55.2M3.7 49L3.7 55.1M7.6 48.3L7.6 55M7 48.6L7 54.5M6.2 49L6.2 55.1"/><path class="st1" d="M15.8 55.3L15.8 55.3"/><path class="st0" d="M16.1 48.6L16.1 55.3M14.2 48.7L14.2 55.3M12 49.1L12 55M9.4 48.8L9.4 54.7M8.4 48.9L8.4 54.8M61.2 54.8L61.2 48.6M61.9 54.6L61.9 48.4M60.7 54.8L60.7 48.6M64.2 54.4L64.2 48.4M63.4 54.7L63.4 48.7M62.7 54.8L62.7 48.8M15.2 48.5L15.2 55.3M58.9 62L58.9 65.2M33.8 49.8L33.8 53.9M36.7 49.2L36.7 53.8M32.3 49.7L32.3 53.8M30 49.9L30 53.7M42.5 49.6L42.5 54.2M41.7 49.7L41.7 54.1M40 49.7L40 54.1M38.9 49.6L38.9 54M38.1 49.5L38.1 53.8M44.8 49L44.8 54.4M46.6 49L46.6 54.4M43.4 49.9L43.4 54.3M26.4 49L26.4 53.7M27.2 49.1L27.2 53.6M28 49.2L28 53.6M29 49L29 53.7M24.8 49.1L24.8 53.8M51.1 54.1L51.1 48.9M53 53.9L53 48.9M49.9 54.2L49.9 48.8M49.1 54.3L49.1 48.9M56.5 54.1L56.5 48.9M58.4 53.9L58.4 48.9M55.3 54.2L55.3 48.8M54.5 54.3L54.5 48.9M58.1 62.1L58.1 65.2M2.8 2.6L2.8 0M1.1 2.6L1.1 0M3.6 0L3.6 2.6"/><path class="st1" d="M3.6 2.6L3.6 2.6M4.4 2.7L4.4 2.6"/><path class="st0" d="M4.4 2.6L4.4 0M5.3 2.6L5.3 0M26.3 3.1L26.3 0M27.1 3.2L27.1 0"/><path class="st1" d="M27.8 3.2L27.8 3.2"/><path class="st0" d="M27.8 3.2L27.8 0M28.8 3.1L28.8 0"/><path class="st1" d="M7.7 2.7L7.7 2.7"/><path class="st0" d="M7.7 2.7L7.7 0M9.5 2.7L9.5 0M14.6 2.7L14.6 0M19.3 2.8L19.3 0M16.4 2.9L16.4 0M18.4 2.8L18.4 0M11.9 2.7L11.9 0M21.5 3L21.5 0M42.8 3.1L42.8 0M45.7 2.4L45.7 0M46.7 2.2L46.7 0M41.3 2.9L41.3 0M39 3.2L39 0M51.5 2.3L51.5 0M49.4 2.3L49.4 0M48.3 2.3L48.3 0"/><path class="st1" d="M47.5 2.6L47.5 2.7"/><path class="st0" d="M47.5 2.6L47.5 0M53.8 2.3L53.8 0M55.6 2.3L55.6 0"/><path class="st1" d="M52.4 2.5L52.4 2.5"/><path class="st0" d="M52.4 2.5L52.4 0M24.7 3.1L24.7 0"/><path class="st1" d="M24.7 3.1L24.7 3.2"/><path class="st0" d="M35.4 3.4L35.4 0M36.2 3.5L36.2 0M37 3.5L37 0M38 3.4L38 0M30.7 3.3L30.7 0M33.8 3.5L33.8 0M60.1 2.5L60.1 0"/><path class="st1" d="M60.1 2.5L60.1 2.5M62 2.6L62 2.5"/><path class="st0" d="M62 2.5L62 0M20.4 2.5L20.4 0M14.6 61.3L14.6 65.2M19.3 61.1L19.3 65.2M16.4 61.2L16.4 65.2M18.4 61.2L18.4 65.2M21.5 61.5L21.5 65.2M20.4 60.9L20.4 65.2M58.9 2.5L58.9 0M58.1 2.5L58.1 0"/><path class="st1" d="M58.1 2.5L58.1 2.5"/><path class="st0" d="M2.3 30.6L2.3 22.5M.7 22.6L.7 30.6M3.2 30.7L3.2 22.5M3.9 30.8L3.9 22.5M4.9 30.6L4.9 22.5M25.8 23.3L25.8 29.4M26.6 23.4L26.6 29.5M27.4 23.3L27.4 29.6M28.4 23.3L28.4 29.4M7.9 30.4L7.9 22.5M9.7 30.4L9.7 22.4M14.8 30.4L14.8 22.7M19 30.3L19 22.7M16.6 30.6L16.6 22.7M17.9 30.2L17.9 22.6M12.2 30.4L12.2 22M21.1 30L21.1 23M42.4 23.2L42.4 28.7M45.2 29.1L45.2 23.1M46.2 28.9L46.2 22.9M40.9 23.1L40.9 28.6M38.6 23L38.6 28.8"/><path class="st1" d="M51.1 30L51.1 30"/><path class="st0" d="M51.1 23.1L51.1 30M49.2 29.3L49.2 23.4M48.4 29L48.4 23.1M47.7 29.3L47.7 23.3M47 29.4L47 22.8M53.3 30L53.3 23.3M55.1 30L55.1 23.3M52 23.2L52 30"/><path class="st1" d="M52 30L52 30.2"/><path class="st0" d="M24.2 23.3L24.2 29.5M35 23L35 29M35.8 22.9L35.8 29.1M36.5 22.9L36.5 29.2M37.5 23L37.5 29M19.3 16.2L19.3 9.9M20.2 16.2L20.2 10M20.9 16.2L20.9 9.9M17.4 15.8L17.4 10.6"/><path class="st1" d="M23.4 16.9L23.4 16.9"/><path class="st0" d="M23.4 16.9L23.4 9.8M21.6 16L21.6 9.8M30.2 23.3L30.2 29M33.4 23L33.4 29.1M59.6 30.3L59.6 22.6M61.6 31L61.6 22.5M19.9 30.1L19.9 22.9M1.4 16.6L1.4 10.4M3.3 16.6L3.3 10.4M6.6 16.6L6.6 10.4"/><path class="st1" d="M7.3 10L7.3 9.8"/><path class="st0" d="M7.3 10L7.3 16.5M5.7 16.6L5.7 10.4M15.6 16.5L15.6 10.7M13.7 16.4L13.7 10.8M11.5 16.4L11.5 10.5M9.2 16.1L9.2 10.2M8.4 16.4L8.4 10.5M61.8 9.6L61.8 16.8"/><path class="st1" d="M61.8 9.6L61.8 9.4"/><path class="st0" d="M61 10.1L61 16.7"/><path class="st1" d="M60.2 16.9L60.2 16.9"/><path class="st0" d="M60.2 16.9L60.2 10.1M63.7 16.5L63.7 9.9M62.9 10.2L62.9 16.8M14.7 16.5L14.7 10.7M58.4 30.2L58.4 22.8M33.4 16.8L33.4 9.6M36.2 16.3L36.2 9.2M31.9 16.7L31.9 9.4M29.6 16.5L29.6 9.6M42.1 16.7L42.1 9.4M41.3 9.4L41.3 16.6M40.4 16.6L40.4 9.4M38.5 16.5L38.5 9.4M37.7 9.6L37.7 16.3M44.3 9.7L44.3 16.5M46.1 9.7L46.1 16.5M43 9.6L43 16.8M26 16.5L26 9.5M26.8 16.5L26.8 9.5M27.5 16.5L27.5 9.6M28.5 16.5L28.5 9.5M24.4 16.3L24.4 9.5M50.6 9.6L50.6 16.6M52.6 9.7L52.6 16.4M49.4 9.6L49.4 16.7M48.6 16.8L48.6 9.6M56 9.6L56 16.6M58 16.4L58 9.7M54.8 9.6L54.8 16.7M54 9.6L54 16.8M19.3 35.5L19.3 41.5M19.9 35.5L19.9 41.4M20.9 35.5L20.9 41.5M17.4 35.6L17.4 41.8M23.4 35.7L23.4 41.5M21.6 35.5L21.6 41.3M1.4 36.1L1.4 41.9M3.3 41.9L3.3 36.1"/><path class="st1" d="M7.3 42.4L7.3 42.5"/><path class="st0" d="M7.3 42.4L7.3 36.1M6.5 36.3L6.5 41.9M5.7 36.1L5.7 41.9M15.6 36L15.6 41.7M13.7 36.1L13.7 41.7M11.5 35.8L11.5 41.7M9.2 35.9L9.2 42.1M8.4 36.2L8.4 42.4M61.8 35.7L61.8 41.8M60.9 36L60.9 41.3M60.2 36.4L60.2 41.9M63.7 41.4L63.7 36.2M62.9 36.5L62.9 41.7M14.7 35.9L14.7 41.7M33.4 35.9L33.4 42M36.2 35.6L36.2 41.6M31.9 35.7L31.9 42M29.6 41.8L29.6 35.6"/><path class="st1" d="M29.6 41.8L29.6 41.8"/><path class="st0" d="M42.1 42L42.1 35.7M41.3 41.9L41.3 35.7M39.6 35.8L39.6 41.8M38.5 35.7L38.5 41.8M37.7 35.9L37.7 41.6M44.3 41.1L44.3 36M46.1 41.1L46.1 36.1M43 42.1L43 35.9"/><path class="st1" d="M26 41.7L26 41.8"/><path class="st0" d="M26 41.7L26 35.4M26.8 35.5L26.8 41.7"/><path class="st1" d="M26.8 41.7L26.8 41.7"/><path class="st0" d="M27.5 41.7L27.5 35.6"/><path class="st1" d="M28.5 41.8L28.5 41.8"/><path class="st0" d="M28.5 35.4L28.5 41.8M24.4 35.5L24.4 41.5M50.6 36L50.6 41.7"/><path class="st1" d="M50.6 41.7L50.6 41.8"/><path class="st0" d="M52.6 36L52.6 41.7M49.4 41.3L49.4 35.9M48.6 41.4L48.6 35.9M56 36L56 42.2M58 36L58 42M54.8 35.9L54.8 42M54 35.9L54 42.1M57.6 30.2L57.6 22.9M64.7 30.3L64.7 22.6M63.5 30.2L63.5 22.8M62.7 30.2L62.7 22.9M6.6 30.7L6.6 22.7M30.5 54.6L30.5 60.8M31.3 54.5L31.3 60.9M32.1 54.7L32.1 60.9M33.1 54.6L33.1 60.9M29 54.6L29 60.8M35 54.8L35 60.6M13.3 55.8L13.3 60.3M14.8 55.8L14.8 60.2M19.9 55.1L19.9 60.2M23 54.4L23 60.8M21.7 54.9L21.7 60.8M9.4 56L9.4 60.4M12.4 55.7L12.4 60.4M11.2 56.2L11.2 60.4M17.3 55.1L17.3 60.2M26.9 54.7L26.9 61.1M25.3 54.8L25.3 61.1M26.3 54.6L26.3 61.1"/><path class="st1" d="M44.9 61L44.9 61.1"/><path class="st0" d="M44.9 61L44.9 54.9M47.8 55.3L47.8 61M43.4 61L43.4 54.8M41.1 55L41.1 60.9M53.3 55.2L53.3 61.1M52.7 55.1L52.7 61M51.8 55.2L51.8 60.9M51.1 55.1L51.1 61.2M49.2 54.9L49.2 61M55.9 55.1L55.9 61.2M57.7 55.1L57.7 61.2M54.2 55.3L54.2 61.1M.8 55.7L.8 60.3M6.6 55.8L6.6 60.4M5.8 55.8L5.8 60.3M5 55.8L5 60.3M4.1 56.2L4.1 60.6M3 56.1L3 60.5M2.2 56L2.2 60.3M7.5 56L7.5 60.4M37.5 60.8L37.5 54.5"/><path class="st1" d="M37.5 60.8L37.5 60.9"/><path class="st0" d="M38.3 54.9L38.3 60.8M39.1 55L39.1 60.8M40.1 54.8L40.1 60.9"/><path class="st1" d="M35.9 60.8L35.9 60.9"/><path class="st0" d="M35.9 60.8L35.9 54.6"/><path class="st1" d="M62.2 55L62.2 55.1"/><path class="st0" d="M62.2 55.1L62.2 60.9"/><path class="st1" d="M64.1 55.1L64.1 55"/><path class="st0" d="M64.1 55.1L64.1 60.7M61 55L61 61"/><path class="st1" d="M61 55L61 55"/><path class="st0" d="M60.2 55L60.2 61.1M30.1 17.4L30.1 21.9M30.9 17.4L30.9 22M31.7 17.5L31.7 22M32.6 17.4L32.6 22M28.5 21.9L28.5 17.5M34.5 17.3L34.5 21.7M12.8 16.9L12.8 21.7M14.4 17.2L14.4 21.7M19.4 16.9L19.4 22.4M22.5 16.9L22.5 22.3M21.2 17.4L21.2 22.3M8.9 22.2L8.9 16.8M12 16.8L12 21.8M10.7 22.1L10.7 16.9"/><path class="st1" d="M10.7 22.1L10.7 22.2"/><path class="st0" d="M16.8 16.6L16.8 21.7M26.4 22.2L26.4 17.5M24.8 22.2L24.8 17.6M25.8 22.2L25.8 17.5M44.5 17.1L44.5 21.5M47.3 17.4L47.3 21.4"/><path class="st1" d="M43 22.1L43 22.1"/><path class="st0" d="M43 22.1L43 16.9M40.7 17.5L40.7 22M53 17.4L53 21.5M52.2 17.3L52.2 21.4M51.4 17.3L51.4 21.3M50.6 17.2L50.6 21.6M48.8 17.1L48.8 21.4M55.4 17.2L55.4 21.6M57.2 17.2L57.2 21.6M53.8 17.4L53.8 21.5M6.2 22.2L6.2 16.9M5.4 22.1L5.4 16.9M4.5 22.1L4.5 17M3.7 21.3L3.7 17.3M2.6 21.9L2.6 16.9M1.8 21.8L1.8 16.8M7.1 22.2L7.1 17.1M37.1 17L37.1 22M37.9 17.4L37.9 21.9M38.6 17.5L38.6 21.9M39.6 17.3L39.6 22M35.5 17L35.5 22M61.7 17.2L61.7 21.3M63.7 17.2L63.7 22.2M60.5 17.1L60.5 21.5M59.7 17.1L59.7 21.5M31.1 3.7L31.1 8.6M31.9 3.8L31.9 8.7M32.7 3.9L32.7 8.7M33.6 8.7L33.6 3.7M29.5 3.8L29.5 8.6M35.5 8.4L35.5 4M13.8 2.9L13.8 9.5M15.4 2.9L15.4 9.4M20.4 3.3L20.4 9.1M23.5 3.6L23.5 8.6"/><path class="st1" d="M22.2 3.1L22.2 3.1"/><path class="st0" d="M22.2 3.1L22.2 9M9.9 3.1L9.9 9.6M13 2.8L13 9.5M11.7 3.3L11.7 9.5M17.8 3.3L17.8 9.4M27.4 3.9L27.4 8.9M25.8 4L25.8 8.9M26.8 3.8L26.8 8.9M45.5 3.1L45.5 8.9M48.3 9.2L48.3 3.1"/><path class="st1" d="M44 3.1L44 2.9"/><path class="st0" d="M44 3.1L44 8.8M41.7 9L41.7 4.2M53.9 9.1L53.9 2.8M53.2 9.1L53.2 2.9M52.4 9L52.4 3M51.6 9.2L51.6 2.9"/><path class="st1" d="M51.6 9.3L51.6 9.2"/><path class="st0" d="M49.8 9.2L49.8 2.7M56.4 9.3L56.4 2.9"/><path class="st1" d="M56.4 9.3L56.4 9.3"/><path class="st0" d="M58.2 9.3L58.2 2.9"/><path class="st1" d="M54.8 9.3L54.8 9.2"/><path class="st0" d="M54.8 9.2L54.8 3.1M1.3 2.8L1.3 9.5M7.2 9.6L7.2 2.9M6.4 9.5L6.4 2.9M5.5 9.5L5.5 3M4.7 9.8L4.7 3.3M3.6 3.3L3.6 9.7M2.8 3.1L2.8 9.5M8.1 3.1L8.1 9.6M38.1 8.7L38.1 3.7"/><path class="st1" d="M38.9 8.9L38.9 8.9"/><path class="st0" d="M38.9 8.9L38.9 4.1M39.6 8.9L39.6 4.2M40.6 9L40.6 4M36.5 8.7L36.5 3.7"/><path class="st1" d="M36.5 8.7L36.5 8.7"/><path class="st0" d="M62.7 2.8L62.7 9M64.7 2.8L64.7 8.9M61.5 9.2L61.5 2.8M60.7 9.3L60.7 2.8M30.1 42.7L30.1 48.3M30.8 42.7L30.8 48.4M31.7 42.8L31.7 48.3M32.6 42.7L32.6 48.3M28.5 42.4L28.5 48.3M34.5 43.6L34.5 48M12.5 42.9L12.5 48.1M14.4 42.5L14.4 48M19.4 42.2L19.4 48M22.5 42.2L22.5 48.5"/><path class="st1" d="M22.5 48.6L22.5 48.5M21.2 48.5L21.2 48.6"/><path class="st0" d="M21.2 48.5L21.2 42.7M8.9 43.1L8.9 47.5M12 42.8L12 47.8M10.7 42.9L10.7 47.8M16.8 42.9L16.8 48M26.4 42.1L26.4 48.6M24.8 42.2L24.8 48.5M25.8 48.6L25.8 42.1M44.5 43.4L44.5 47.8M47.3 42.4L47.3 47.7M43 43.2L43 48.4M40.7 43.1L40.7 48.3M52.9 43.2L52.9 47.4M52.2 42.6L52.2 47.7M51.4 42.6L51.4 47.6M50.6 42.5L50.6 47.9M48.8 42.4L48.8 47.7M55.4 42.9L55.4 47.9M57.2 42.9L57.2 47.9M53.8 43.1L53.8 47.9M6.2 42.5L6.2 47.5M5.4 42.6L5.4 47.4M4.5 42.6L4.5 47.4M3.7 43L3.7 47.7"/><path class="st1" d="M2.6 48.1L2.6 48.3"/><path class="st0" d="M2.6 48.1L2.6 42.5"/><path class="st1" d="M1.8 48L1.8 48.1"/><path class="st0" d="M1.8 42.4L1.8 48M7.1 42.8L7.1 47.5M37.1 43.3L37.1 48.3M37.9 43.7L37.9 48.2M38.6 43.1L38.6 48.2M39.6 42.9L39.6 48.3M35.5 43.4L35.5 48.4M61.7 42.4L61.7 47.6M63.7 42.5L63.7 47.5M60.5 42.7L60.5 47.8M59.7 42.8L59.7 47.9M31.1 34.6L31.1 29.7M31.9 34.7L31.9 29.7M32.6 34.8L32.6 29.8M33.6 34.7L33.6 29.7M29.5 34.6L29.5 29.8M35.5 29.9L35.5 34.4M13.8 31.3L13.8 34.8M15.4 31.3L15.4 34.7"/><path class="st1" d="M20.4 34.9L20.4 35"/><path class="st0" d="M20.4 30.6L20.4 34.9M23.5 29.9L23.5 34.6M22.2 35L22.2 30.4M9.9 35.6L9.9 31.2"/><path class="st1" d="M9.9 31.2L9.9 31.2"/><path class="st0" d="M13 34.8L13 31.2"/><path class="st1" d="M13 31.2L13 31.2"/><path class="st0" d="M11.7 31.3L11.7 35.5M17.8 34.7L17.8 30.8"/><path class="st1" d="M17.8 30.8L17.8 30.6"/><path class="st0" d="M27.4 34.9L27.4 29.9M25.8 34.8L25.8 30M26.8 34.9L26.8 29.8M45.5 30.4L45.5 34.9M48.3 30.5L48.3 34.4M44 30.3L44 34.8M41.7 30.2L41.7 35M54 30.7L54 34.8M53.2 30.6L53.2 34.7M52.4 30.5L52.4 34.5M51.6 30.3L51.6 34.6M49.8 30.1L49.8 34.4M56.4 30.9L56.4 35.3M58.2 31L58.2 35.3M54.8 30.8L54.8 34.9M1.3 35.5L1.3 31.5M7.2 35.5L7.2 31.1"/><path class="st1" d="M7.2 31.1L7.2 31M6.4 31.1L6.4 31"/><path class="st0" d="M6.4 35.5L6.4 31.1M5.5 31.1L5.5 35.5"/><path class="st1" d="M5.5 31.1L5.5 31M4.7 35.7L4.7 35.7"/><path class="st0" d="M4.7 35.7L4.7 31.4"/><path class="st1" d="M3.6 35.7L3.6 35.7"/><path class="st0" d="M3.6 35.7L3.6 31.3M2.8 35.5L2.8 31.2M8.1 31.2L8.1 35.6M38.1 29.6L38.1 34.6M39.6 34.9L39.6 30.1M40.6 30L40.6 35M36.5 29.7L36.5 34.7M62.7 31.1L62.7 35"/><path class="st1" d="M62.7 30.9L62.7 31.1M64.7 31.1L64.7 30.9"/><path class="st0" d="M64.7 31.1L64.7 34.9M61.5 31L61.5 35.2"/><path class="st1" d="M61.5 30.8L61.5 31M60.7 30.8L60.7 30.9"/><path class="st0" d="M60.7 30.9L60.7 35.2M.3 42.1L.3 47.8"/></svg>