<svg version="1.1" id="Layer_1" xmlns="http://www.w3.org/2000/svg" x="0" y="0" width="80.6" height="80.5" xml:space="preserve"><style>.st0,.st2{fill:none;stroke:#000;stroke-width:.3}.st2{stroke-width:.6;stroke-linecap:round}</style><path fill="none" d="M0 0H80.6V80.5H0z"/><path class="st2" d="M7.5 10L7.5 10M7.5 13.3L7.5 13.3M2.8 13.4L2.8 13.4M11.5 13L11.5 13M14.2 14.8L14.2 14.8M17.6 15.5L17.6 15.5M24.1 7L24.1 7M21.1 12.7L21.1 12.7M14.6 18.1L14.6 18.1M16.7 12.1L16.7 12.1M17.2 6.3L17.2 6.3M20.7 8.7L20.7 8.7M24.3 10.1L24.3 10.1M20.3 3.7L20.3 3.7M12.1 8.9L12.1 8.9M5.3 7.1L5.3 7.1M6.7 2.5L6.7 2.5M13.3.8L13.3.8M16.6 2.6L16.6 2.6M2.8 3.3L2.8 3.3M1.3 7.5L1.3 7.5M14.1 5L14.1 5M8.8 6.5L8.8 6.5M7.5 27.7L7.5 27.7M3.7 28L3.7 28M7.5 31L7.5 31M2.8 31.1L2.8 31.1M12.8 30.1L12.8 30.1M14.8 32.7L14.8 32.7M10.1 33.8L10.1 33.8M5.1 34.1L5.1 34.1M7.3 36.8L7.3 36.8M11.2 38.2L11.2 38.2M17.8 33.1L17.8 33.1M12.9 36L12.9 36M16.7 29L16.7 29M16.5 26.5L16.5 26.5M20.7 26.4L20.7 26.4M20.3 21.4L20.3 21.4M20 17L20 17M12.1 26.6L12.1 26.6M5.3 24.8L5.3 24.8M4.6 16.5L4.6 16.5M6.7 20.2L6.7 20.2M10.7 20.5L10.7 20.5M16.6 20.4L16.6 20.4M3.1 20L3.1 20M1.3 25.2L1.3 25.2M14.1 22.7L14.1 22.7M8.8 24.2L8.8 24.2M34.3 10L34.3 10M34.2 13.3L34.2 13.3M29.6 13.4L29.6 13.4M26.1 13.2L26.1 13.2M27.7 16.6L27.7 16.6M23.4 19.8L23.4 19.8M23.2 23.2L23.2 23.2M24.6 26.6L24.6 26.6M26.3 21.6L26.3 21.6M38.3 13L38.3 13M41 14.8L41 14.8M44.8 15.3L44.8 15.3M41.3 18.1L41.3 18.1M43.5 12.1L43.5 12.1M43.1 6.3L43.1 6.3M47.4 10.3L47.4 10.3M46.8 7L46.8 7M47.1 3.7L47.1 3.7M38.8 8.9L38.8 8.9M32.1 7.1L32.1 7.1M33.5 2.5L33.5 2.5M40 .8L40 .8M43.3 2.6L43.3 2.6M50.6 79.3L50.6 79.3M29.5 3.3L29.5 3.3M26.2 4.3L26.2 4.3M25.3.7L25.3.7M28 7.5L28 7.5M39.4 4L39.4 4M35.6 6.5L35.6 6.5M34.3 27.7L34.3 27.7M30.3 27.1L30.3 27.1M26.7 28.2L26.7 28.2M19.8 30.9L19.8 30.9M34.2 31L34.2 31M26.2 32.1L26.2 32.1M25.4 35.5L25.4 35.5M20.4 36.3L20.4 36.3M22.1 39L22.1 39M56.1 33.6L56.1 33.6M52.6 36L52.6 36M60.9 35.8L60.9 35.8M78.5 37.5L78.5 37.5M22 33.2L22 33.2M30.2 30.5L30.2 30.5M40.8 29.2L40.8 29.2M41 32.5L41 32.5M36.8 33.8L36.8 33.8M31.3 34L31.3 34M34.1 36.8L34.1 36.8M38 38.2L38 38.2M44.8 34.6L44.8 34.6M39.9 36L39.9 36M44.1 30.7L44.1 30.7M43.2 26.5L43.2 26.5M46.2 29.1L46.2 29.1M49.2 26.6L49.2 26.6M52 24.1L52 24.1M52.5 27.6L52.5 27.6M55.2 26L55.2 26M55.8 29.7L55.8 29.7M58.7 30.5L58.7 30.5M53.1 31.2L53.1 31.2M49.7 33.8L49.7 33.8M54.3 21.2L54.3 21.2M46.8 20.5L46.8 20.5M46.7 17L46.7 17M38.8 26.6L38.8 26.6M32.9 25L32.9 25M47.1 36.6L47.1 36.6M32 16.6L32 16.6M33.5 20.2L33.5 20.2M37.5 20.5L37.5 20.5M43.3 20.4L43.3 20.4M29.2 20.1L29.2 20.1M26.9 25.1L26.9 25.1M40.8 22.7L40.8 22.7M36.4 24L36.4 24M80 11.4L80 11.4M80 29.1L80 29.1M79.7 18L79.7 18M72.1 9.5L72.1 9.5M72.2 12.8L72.2 12.8M75.7 10.1L75.7 10.1M76.8 12.8L76.8 12.8M68.1 12.4L68.1 12.4M65.5 14.3L65.5 14.3M60.1 13L60.1 13M64.1 8.3L64.1 8.3M63 11.5L63 11.5M62.5 5.8L62.5 5.8M58.8 7L58.8 7M59.3 3.1L59.3 3.1M55.6 1.3L55.6 1.3M53 3.3L53 3.3M56.1 4.2L56.1 4.2M53.9 6.5L53.9 6.5M50.8 7.8L50.8 7.8M52.4 11L52.4 11M65.8 18.7L65.8 18.7M48.4 13.5L48.4 13.5M52.9 14.5L52.9 14.5M59.4 9.3L59.4 9.3M57 14L57 14M56 17.3L56 17.3M52.2 18.5L52.2 18.5M50.3 21.3L50.3 21.3M47.1 24.6L47.1 24.6M67.6 8.3L67.6 8.3M78.2 1.5L78.2 1.5M73 1.9L73 1.9M66.3.7L66.3.7M68.7 3L68.7 3M77.7 7L77.7 7M75.8 3.9L75.8 3.9M65.6 4.5L65.6 4.5M22.1 78.5L22.1 78.5M9.6 79.8L9.6 79.8M1.2 79.5L1.2 79.5M17.4 79.1L17.4 79.1M29.9 57L29.9 57M43.6 78.6L43.6 78.6M29.2 79.3L29.2 79.3M43.4 70.6L43.4 70.6M57.2 79.1L57.2 79.1M46.6 79.8L46.6 79.8M70.2 79.6L70.2 79.6M62.2 79.5L62.2 79.5M70.8 6L70.8 6M72.1 27.2L72.1 27.2M76 27.4L76 27.4M72.6 32.1L72.6 32.1M78.1 33.2L78.1 33.2M66.5 29.3L66.5 29.3M65.5 32L65.5 32M69.6 33.3L69.6 33.3M75.7 34.5L75.7 34.5M73.6 36.5L73.6 36.5M67.2 38.7L67.2 38.7M60.7 32.5L60.7 32.5M65.1 35.2L65.1 35.2M68.1 16.2L68.1 16.2M63.2 25.9L63.2 25.9M61.8 22.8L61.8 22.8M59 25.9L59 25.9M59.3 20.9L59.3 20.9M59.7 16.5L59.7 16.5M67.6 26L67.6 26M74.3 24.2L74.3 24.2M69.6 29.3L69.6 29.3M73 19.6L73 19.6M69 19.9L69 19.9M63.1 19.8L63.1 19.8M76.9 20.5L76.9 20.5M78.4 24.7L78.4 24.7M65.6 22.2L65.6 22.2M71.5 16.1L71.5 16.1M7.5 70.5L7.5 70.5M7.5 67.2L7.5 67.2M2.8 67.1L2.8 67.1M11.5 67.5L11.5 67.5M14.2 65.7L14.2 65.7M18.1 56.7L18.1 56.7M23.4 64.5L23.4 64.5M23 73.3L23 73.3M25.2 75.5L25.2 75.5M21.1 67.8L21.1 67.8M13.2 62.6L13.2 62.6M17.6 66.8L17.6 66.8M17.1 71.8L17.1 71.8M20.7 71.8L20.7 71.8M29.1 43.1L29.1 43.1M20.2 75.6L20.2 75.6M9.9 72.3L9.9 72.3M5.3 73.4L5.3 73.4M6.2 78.8L6.2 78.8M14.6 69.8L14.6 69.8M3.4 70.1L3.4 70.1M1.3 73L1.3 73M13.8 74L13.8 74M12.6 77.1L12.6 77.1M7.5 52.8L7.5 52.8M3.7 52.5L3.7 52.5M7.5 49.5L7.5 49.5M18.2 40.1L18.2 40.1M13.2 50.7L13.2 50.7M14.2 48L14.2 48M10.1 46.7L10.1 46.7M5.1 46.4L5.1 46.4M7.3 43.7L7.3 43.7M13.2 41.3L13.2 41.3M17.8 47.4L17.8 47.4M12.9 44.5L12.9 44.5M16.4 44L16.4 44M16.5 54L16.5 54M20.7 54.1L20.7 54.1M20.3 59.1L20.3 59.1M20 63.5L20 63.5M12.1 53.9L12.1 53.9M5.3 55.7L5.3 55.7M1.6 44.5L1.6 44.5M6.7 60.3L6.7 60.3M10.7 60L10.7 60M16.6 60.1L16.6 60.1M2.8 59.5L2.8 59.5M1.3 55.3L1.3 55.3M14.1 57.8L14.1 57.8M9.2 64L9.2 64M33.4 68.6L33.4 68.6M33.1 65L33.1 65M29.6 67.1L29.6 67.1M26.1 67.3L26.1 67.3M27.1 63.9L27.1 63.9M23.4 60.7L23.4 60.7M23.2 50.3L23.2 50.3M26.3 58.9L26.3 58.9M38.3 67.5L38.3 67.5M41 65.7L41 65.7M45.6 65.7L45.6 65.7M41.3 62.4L41.3 62.4M41.8 68L41.8 68M44 74.2L44 74.2M46.8 69L46.8 69M46.8 73.5L46.8 73.5M48.8 76.3L48.8 76.3M38.8 71.6L38.8 71.6M32.1 73.4L32.1 73.4M33.5 78L33.5 78M38.1 78.5L38.1 78.5M29.8 70L29.8 70M25.9 78.3L25.9 78.3M28 73L28 73M39.1 75.3L39.1 75.3M35.1 75L35.1 75M34.3 52.8L34.3 52.8M30.5 52.5L30.5 52.5M27.1 51.8L27.1 51.8M20 50.7L20 50.7M34.2 49.5L34.2 49.5M26.2 48.4L26.2 48.4M25.4 45L25.4 45M20.4 44.2L20.4 44.2M25.8 39.8L25.8 39.8M56.1 46.9L56.1 46.9M52 44.5L52 44.5M60.9 44.7L60.9 44.7M75.2 39.5L75.2 39.5M71.4 40.6L71.4 40.6M55.4 39.1L55.4 39.1M50.4 39.1L50.4 39.1M33.6 40.1L33.6 40.1M29.8 39.6L29.8 39.6M7.6 40L7.6 40M4.4 42L4.4 42M1.2 35L1.2 35M79.4 41.7L79.4 41.7M22 47.3L22 47.3M29.6 49.4L29.6 49.4M40 50.7L40 50.7M41 48L41 48M36.8 46.7L36.8 46.7M31.8 46.4L31.8 46.4M34.1 43.7L34.1 43.7M39.8 41.3L39.8 41.3M45.7 47.4L45.7 47.4M39.9 44.5L39.9 44.5M43.4 43.6L43.4 43.6M43.2 54L43.2 54M48.1 50.3L48.1 50.3M47.4 53L47.4 53M52 56.4L52 56.4M52.5 52.9L52.5 52.9M55.8 53.8L55.8 53.8M55 42.6L55 42.6M58.6 42.3L58.6 42.3M59.4 51.4L59.4 51.4M53.1 49.3L53.1 49.3M49.4 47.2L49.4 47.2M54.3 59.3L54.3 59.3M46.8 60L46.8 60M48.4 63.3L48.4 63.3M38.8 53.9L38.8 53.9M32.9 55.5L32.9 55.5M47.1 43.9L47.1 43.9M36.8 64L36.8 64M33.5 60.3L33.5 60.3M37.5 60L37.5 60M43.3 60.1L43.3 60.1M29.2 60.4L29.2 60.4M26.9 55.4L26.9 55.4M40.8 57.8L40.8 57.8M36.8 51.1L36.8 51.1M80 69.1L80 69.1M80 51.4L80 51.4M79.7 62.5L79.7 62.5M72.1 71L72.1 71M72.2 67.7L72.2 67.7M77.3 66.7L77.3 66.7M68.1 68.1L68.1 68.1M65.5 66.2L65.5 66.2M60.1 67.5L60.1 67.5M64.1 72.2L64.1 72.2M8.9 76.3L8.9 76.3M63.2 75L63.2 75M59 72.4L59 72.4M59.9 76.5L59.9 76.5M53 77.2L53 77.2M57.1 70.3L57.1 70.3M53.9 74L53.9 74M50.8 72.7L50.8 72.7M44.8 39.8L44.8 39.8M65.8 61.8L65.8 61.8M52.8 67.6L52.8 67.6M49.4 66L49.4 66M53.6 70.5L53.6 70.5M57 66.5L57 66.5M61.9 39.3L61.9 39.3M52.4 63.3L52.4 63.3M50.3 59.2L50.3 59.2M45.1 56.6L45.1 56.6M67.6 72.2L67.6 72.2M74.3 74L74.3 74M78.9 76.3L78.9 76.3M73.2 77.3L73.2 77.3M75.9 64.3L75.9 64.3M68.4 44L68.4 44M78.4 73.5L78.4 73.5M65.9 77.5L65.9 77.5M70.1 73.6L70.1 73.6M72.1 53.3L72.1 53.3M76 53.1L76 53.1M72.2 50L72.2 50M78.1 47.3L78.1 47.3M66.5 51.2L66.5 51.2M64.4 48.3L64.4 48.3M69.6 47.2L69.6 47.2M74.6 47L74.6 47M72.3 44.2L72.3 44.2M67.2 41.8L67.2 41.8M60.7 48L60.7 48M65.1 45.3L65.1 45.3M63.4 64L63.4 64M63.1 52.3L63.1 52.3M57.2 57L57.2 57M60.2 55L60.2 55M59.3 59.6L59.3 59.6M59.7 64L59.7 64M67.6 54.5L67.6 54.5M75.8 49.6L75.8 49.6M71.3 57L71.3 57M73 60.9L73 60.9M71.7 64.4L71.7 64.4M70 60.1L70 60.1M63.1 60.7L63.1 60.7M76.9 60L76.9 60M78.4 55.8L78.4 55.8M67 58.9L67 58.9M10.4 49.8L10.4 49.8"/><path class="st0" d="M37.7 16L38 18 36.1 17.3M23.6 15L24.6 16.8 22.6 16.9M56.8 22.7L57.8 24.4 55.8 24.5M16.7 75.2L17.8 77 15.7 77.1M69.1 35.2L70.1 37 68.1 37.1M44.6 61.7L45.6 63.5 43.6 63.6M24.3 3.7L22.4 3.1 23.7 1.6M29.5 9L31.3 10 29.6 11.1M54.9 9.3L56.7 10.3 55 11.4M17.1 36.5L17.3 38.5 15.4 37.8M70.1 22L70.3 24 68.4 23.3M42.6 75.7L42.8 77.7 40.9 77M62.8 41L63.1 43 61.2 42.3M63.6 28.5L63.8 30.5 61.9 29.8M50.1 30L50.3 32 48.4 31.3M5.2 39.3L3.3 38.5 4.9 37.2M17 8.4L15.8 10 14.9 8.2M31.4 23.7L29.5 23.3 30.7 21.7M36.2 30.9L37.3 29.2 38.3 31M30 45.4L30 47.4 28.2 46.5M50.5 1.2L50.6 3.2 48.8 2.4M69.3 75.4L69.3 77.5 67.5 76.6M16.5 24.2L18.1 23 18.4 25M9.1 29.1L10.8 30.2 9.1 31.2M29.6 62.2L31.3 63.3 29.5 64.3M24.6 29.8L23 31 22.6 29M76.8 16L75.2 17.2 74.8 15.2M51.1 41.2L49.5 42.5 49.1 40.5M43.2 9.2L41.6 10.5 41.2 8.5M2.6 47.8L2.5 49.8.8 48.8M49.4 54.7L49.3 56.7 47.6 55.7M10.3 57.3L8.3 56.8 9.6 55.3M58.3 75.9L56.3 75.5 57.6 73.9M17.4 64.4L15.7 63.3 17.4 62.3M76.1 70.7L74.4 69.7 76.1 68.6M57.3 51L55.6 50 57.3 48.9M22.5 55.2L24.5 54.8 23.9 56.8M74.7 29.9L76.7 29.5 76.1 31.5M4.3 62.1L5.3 63.8 3.3 63.9M77.8 57.9L75.8 58.2 76.5 56.3M36.3 43.8L37.8 42.5 38.3 44.4M66.8 64.6L68.3 63.3 68.8 65.2M55.1 37.3L56.6 36 57.2 37.9M42.6 24.2L44.1 22.9 44.6 24.8M35.3 4.1L36.8 2.7 37.3 4.7M22 43.1L22.5 41.2 24.1 42.5M61.3 18L61.8 16 63.3 17.4M34.8 72.7L35.3 70.7 36.8 72.1M41.8 37.7L43.1 36.2 43.8 38.1M9.5 41.2L11.4 41.8 10 43.2M61.4 1.6L63.3 2.2 61.9 3.7M75.6 6.5L73.7 7.2 73.9 5.2M48.4 69.1L50.3 69.7 48.9 71.2M23.3 68.9L25.3 69.5 23.9 71M75.8 77.7L77.7 78.3 76.3 79.8M3.3 8.8L4.1 10.7 2.1 10.6M8.6 16.5L10.6 16.5 9.7 18.3M1.6 22.5L3.6 22.5 2.7 24.3M17.1 49.6L17.8 51.5 15.8 51.3M68.4 48.6L69.1 50.5 67.1 50.2M63.6 55.3L64.3 57.2 62.3 57M36.7 57.9L34.6 57.8 35.7 56M30.6 77.5L28.6 77.3 29.6 75.6M57.3 63.3L55.3 63.2 56.3 61.5M4.8 77L2.7 76.8 3.8 75.1M31 37.1L29 37.3 29.7 35.4M67.8 10.7L65.8 10.9 66.6 9M50.3 18.3L48.3 18.5 49.1 16.6M12.8 70.9L10.8 71.1 11.5 69.2M77.1 44L75.1 44.1 75.8 42.2M63.8 70.2L61.8 70.4 62.6 68.5M43.1 49.5L45.1 50 43.8 51.5M9.8 4.2L10.6 2.4 11.9 3.9"/></svg>