<?xml version="1.0" encoding="utf-8"?>
<!-- Generator: Adobe Illustrator 16.0.0, SVG Export Plug-In . SVG Version: 6.00 Build 0)  -->
<!DOCTYPE svg PUBLIC "-//W3C//DTD SVG 1.1//EN" "http://www.w3.org/Graphics/SVG/1.1/DTD/svg11.dtd">
<svg version="1.1" id="Layer_1" xmlns="http://www.w3.org/2000/svg" xmlns:xlink="http://www.w3.org/1999/xlink" x="0px" y="0px"
	 width="80.6px" height="80.6px" viewBox="0 0 80.6 80.6" style="enable-background:new 0 0 80.6 80.6;" xml:space="preserve">
<style type="text/css">
<![CDATA[
	.st0{fill-rule:evenodd;clip-rule:evenodd;fill:none;}
	.st1{fill:none;}
	.st2{fill-rule:evenodd;clip-rule:evenodd;fill:none;stroke:#000000;stroke-width:0.43;}
]]>
</style>
<g>
	<rect class="st1" width="80.6" height="80.6"/>
	<line class="st2" x1="1.8" y1="0" x2="1.8" y2="2.7"/>
	<line class="st2" x1="1.8" y1="78.1" x2="1.8" y2="80.6"/>
	<line class="st2" x1="7.6" y1="0" x2="7.6" y2="2.7"/>
	<line class="st2" x1="7.6" y1="78.1" x2="7.6" y2="80.6"/>
	<line class="st2" x1="13.4" y1="0" x2="13.4" y2="2.7"/>
	<line class="st2" x1="13.4" y1="78.1" x2="13.4" y2="80.6"/>
	<line class="st2" x1="19.1" y1="0" x2="19.1" y2="2.7"/>
	<line class="st2" x1="19.1" y1="78.1" x2="19.1" y2="80.6"/>
	<line class="st2" x1="24.9" y1="0" x2="24.9" y2="2.7"/>
	<line class="st2" x1="24.9" y1="78.1" x2="24.9" y2="80.6"/>
	<line class="st2" x1="30.6" y1="0" x2="30.6" y2="2.7"/>
	<line class="st2" x1="30.6" y1="78.1" x2="30.6" y2="80.6"/>
	<line class="st2" x1="36.4" y1="0" x2="36.4" y2="2.7"/>
	<line class="st2" x1="36.4" y1="78.1" x2="36.4" y2="80.6"/>
	<line class="st2" x1="42.2" y1="0" x2="42.2" y2="2.7"/>
	<line class="st2" x1="42.2" y1="78.1" x2="42.2" y2="80.6"/>
	<line class="st2" x1="47.9" y1="0" x2="47.9" y2="2.7"/>
	<line class="st2" x1="47.9" y1="78.1" x2="47.9" y2="80.6"/>
	<line class="st2" x1="53.7" y1="0" x2="53.7" y2="2.7"/>
	<line class="st2" x1="53.7" y1="78.1" x2="53.7" y2="80.6"/>
	<line class="st2" x1="59.4" y1="0" x2="59.4" y2="2.7"/>
	<line class="st2" x1="59.4" y1="78.1" x2="59.4" y2="80.6"/>
	<line class="st2" x1="65.2" y1="0" x2="65.2" y2="2.7"/>
	<line class="st2" x1="65.2" y1="78.1" x2="65.2" y2="80.6"/>
	<line class="st2" x1="71" y1="0" x2="71" y2="2.7"/>
	<line class="st2" x1="71" y1="78.1" x2="71" y2="80.6"/>
	<line class="st2" x1="76.7" y1="0" x2="76.7" y2="2.7"/>
	<line class="st2" x1="76.7" y1="78.1" x2="76.7" y2="80.6"/>
	<line class="st2" x1="1.8" y1="6.1" x2="1.8" y2="11.7"/>
	<line class="st2" x1="1.8" y1="15.1" x2="1.8" y2="20.7"/>
	<line class="st2" x1="1.8" y1="24.1" x2="1.8" y2="29.7"/>
	<line class="st2" x1="1.8" y1="33.1" x2="1.8" y2="38.7"/>
	<line class="st2" x1="1.8" y1="42.1" x2="1.8" y2="47.7"/>
	<line class="st2" x1="1.8" y1="51.1" x2="1.8" y2="56.7"/>
	<line class="st2" x1="1.8" y1="60.1" x2="1.8" y2="65.7"/>
	<line class="st2" x1="1.8" y1="69.1" x2="1.8" y2="74.7"/>
	<line class="st2" x1="7.6" y1="6.1" x2="7.6" y2="11.7"/>
	<line class="st2" x1="7.6" y1="15.1" x2="7.6" y2="20.7"/>
	<line class="st2" x1="7.6" y1="24.1" x2="7.6" y2="29.7"/>
	<line class="st2" x1="7.6" y1="33.1" x2="7.6" y2="38.7"/>
	<line class="st2" x1="7.6" y1="42.1" x2="7.6" y2="47.7"/>
	<line class="st2" x1="7.6" y1="51.1" x2="7.6" y2="56.7"/>
	<line class="st2" x1="7.6" y1="60.1" x2="7.6" y2="65.7"/>
	<line class="st2" x1="7.6" y1="69.1" x2="7.6" y2="74.7"/>
	<line class="st2" x1="13.4" y1="6.1" x2="13.4" y2="11.7"/>
	<line class="st2" x1="13.4" y1="15.1" x2="13.4" y2="20.7"/>
	<line class="st2" x1="13.4" y1="24.1" x2="13.4" y2="29.7"/>
	<line class="st2" x1="13.4" y1="33.1" x2="13.4" y2="38.7"/>
	<line class="st2" x1="13.4" y1="42.1" x2="13.4" y2="47.7"/>
	<line class="st2" x1="13.4" y1="51.1" x2="13.4" y2="56.7"/>
	<line class="st2" x1="13.4" y1="60.1" x2="13.4" y2="65.7"/>
	<line class="st2" x1="13.4" y1="69.1" x2="13.4" y2="74.7"/>
	<line class="st2" x1="19.1" y1="6.1" x2="19.1" y2="11.7"/>
	<line class="st2" x1="19.1" y1="15.1" x2="19.1" y2="20.7"/>
	<line class="st2" x1="19.1" y1="24.1" x2="19.1" y2="29.7"/>
	<line class="st2" x1="19.1" y1="33.1" x2="19.1" y2="38.7"/>
	<line class="st2" x1="19.1" y1="42.1" x2="19.1" y2="47.7"/>
	<line class="st2" x1="19.1" y1="51.1" x2="19.1" y2="56.7"/>
	<line class="st2" x1="19.1" y1="60.1" x2="19.1" y2="65.7"/>
	<line class="st2" x1="19.1" y1="69.1" x2="19.1" y2="74.7"/>
	<line class="st2" x1="24.9" y1="6.1" x2="24.9" y2="11.7"/>
	<line class="st2" x1="24.9" y1="15.1" x2="24.9" y2="20.7"/>
	<line class="st2" x1="24.9" y1="24.1" x2="24.9" y2="29.7"/>
	<line class="st2" x1="24.9" y1="33.1" x2="24.9" y2="38.7"/>
	<line class="st2" x1="24.9" y1="42.1" x2="24.9" y2="47.7"/>
	<line class="st2" x1="24.9" y1="51.1" x2="24.9" y2="56.7"/>
	<line class="st2" x1="24.9" y1="60.1" x2="24.9" y2="65.7"/>
	<line class="st2" x1="24.9" y1="69.1" x2="24.9" y2="74.7"/>
	<line class="st2" x1="30.6" y1="6.1" x2="30.6" y2="11.7"/>
	<line class="st2" x1="30.6" y1="15.1" x2="30.6" y2="20.7"/>
	<line class="st2" x1="30.6" y1="24.1" x2="30.6" y2="29.7"/>
	<line class="st2" x1="30.6" y1="33.1" x2="30.6" y2="38.7"/>
	<line class="st2" x1="30.6" y1="42.1" x2="30.6" y2="47.7"/>
	<line class="st2" x1="30.6" y1="51.1" x2="30.6" y2="56.7"/>
	<line class="st2" x1="30.6" y1="60.1" x2="30.6" y2="65.7"/>
	<line class="st2" x1="30.6" y1="69.1" x2="30.6" y2="74.7"/>
	<line class="st2" x1="36.4" y1="6.1" x2="36.4" y2="11.7"/>
	<line class="st2" x1="36.4" y1="15.1" x2="36.4" y2="20.7"/>
	<line class="st2" x1="36.4" y1="24.1" x2="36.4" y2="29.7"/>
	<line class="st2" x1="36.4" y1="33.1" x2="36.4" y2="38.7"/>
	<line class="st2" x1="36.4" y1="42.1" x2="36.4" y2="47.7"/>
	<line class="st2" x1="36.4" y1="51.1" x2="36.4" y2="56.7"/>
	<line class="st2" x1="36.4" y1="60.1" x2="36.4" y2="65.7"/>
	<line class="st2" x1="36.4" y1="69.1" x2="36.4" y2="74.7"/>
	<line class="st2" x1="42.2" y1="6.1" x2="42.2" y2="11.7"/>
	<line class="st2" x1="42.2" y1="15.1" x2="42.2" y2="20.7"/>
	<line class="st2" x1="42.2" y1="24.1" x2="42.2" y2="29.7"/>
	<line class="st2" x1="42.2" y1="33.1" x2="42.2" y2="38.7"/>
	<line class="st2" x1="42.2" y1="42.1" x2="42.2" y2="47.7"/>
	<line class="st2" x1="42.2" y1="51.1" x2="42.2" y2="56.7"/>
	<line class="st2" x1="42.2" y1="60.1" x2="42.2" y2="65.7"/>
	<line class="st2" x1="42.2" y1="69.1" x2="42.2" y2="74.7"/>
	<line class="st2" x1="47.9" y1="6.1" x2="47.9" y2="11.7"/>
	<line class="st2" x1="47.9" y1="15.1" x2="47.9" y2="20.7"/>
	<line class="st2" x1="47.9" y1="24.1" x2="47.9" y2="29.7"/>
	<line class="st2" x1="47.9" y1="33.1" x2="47.9" y2="38.7"/>
	<line class="st2" x1="47.9" y1="42.1" x2="47.9" y2="47.7"/>
	<line class="st2" x1="47.9" y1="51.1" x2="47.9" y2="56.7"/>
	<line class="st2" x1="47.9" y1="60.1" x2="47.9" y2="65.7"/>
	<line class="st2" x1="47.9" y1="69.1" x2="47.9" y2="74.7"/>
	<line class="st2" x1="53.7" y1="6.1" x2="53.7" y2="11.7"/>
	<line class="st2" x1="53.7" y1="15.1" x2="53.7" y2="20.7"/>
	<line class="st2" x1="53.7" y1="24.1" x2="53.7" y2="29.7"/>
	<line class="st2" x1="53.7" y1="33.1" x2="53.7" y2="38.7"/>
	<line class="st2" x1="53.7" y1="42.1" x2="53.7" y2="47.7"/>
	<line class="st2" x1="53.7" y1="51.1" x2="53.7" y2="56.7"/>
	<line class="st2" x1="53.7" y1="60.1" x2="53.7" y2="65.7"/>
	<line class="st2" x1="53.7" y1="69.1" x2="53.7" y2="74.7"/>
	<line class="st2" x1="59.4" y1="6.1" x2="59.4" y2="11.7"/>
	<line class="st2" x1="59.4" y1="15.1" x2="59.4" y2="20.7"/>
	<line class="st2" x1="59.4" y1="24.1" x2="59.4" y2="29.7"/>
	<line class="st2" x1="59.4" y1="33.1" x2="59.4" y2="38.7"/>
	<line class="st2" x1="59.4" y1="42.1" x2="59.4" y2="47.7"/>
	<line class="st2" x1="59.4" y1="51.1" x2="59.4" y2="56.7"/>
	<line class="st2" x1="59.4" y1="60.1" x2="59.4" y2="65.7"/>
	<line class="st2" x1="59.4" y1="69.1" x2="59.4" y2="74.7"/>
	<line class="st2" x1="65.2" y1="6.1" x2="65.2" y2="11.7"/>
	<line class="st2" x1="65.2" y1="15.1" x2="65.2" y2="20.7"/>
	<line class="st2" x1="65.2" y1="24.1" x2="65.2" y2="29.7"/>
	<line class="st2" x1="65.2" y1="33.1" x2="65.2" y2="38.7"/>
	<line class="st2" x1="65.2" y1="42.1" x2="65.2" y2="47.7"/>
	<line class="st2" x1="65.2" y1="51.1" x2="65.2" y2="56.7"/>
	<line class="st2" x1="65.2" y1="60.1" x2="65.2" y2="65.7"/>
	<line class="st2" x1="65.2" y1="69.1" x2="65.2" y2="74.7"/>
	<line class="st2" x1="71" y1="6.1" x2="71" y2="11.7"/>
	<line class="st2" x1="71" y1="15.1" x2="71" y2="20.7"/>
	<line class="st2" x1="71" y1="24.1" x2="71" y2="29.7"/>
	<line class="st2" x1="71" y1="33.1" x2="71" y2="38.7"/>
	<line class="st2" x1="71" y1="42.1" x2="71" y2="47.7"/>
	<line class="st2" x1="71" y1="51.1" x2="71" y2="56.7"/>
	<line class="st2" x1="71" y1="60.1" x2="71" y2="65.7"/>
	<line class="st2" x1="71" y1="69.1" x2="71" y2="74.7"/>
	<line class="st2" x1="76.7" y1="6.1" x2="76.7" y2="11.7"/>
	<line class="st2" x1="76.7" y1="15.1" x2="76.7" y2="20.7"/>
	<line class="st2" x1="76.7" y1="24.1" x2="76.7" y2="29.7"/>
	<line class="st2" x1="76.7" y1="33.1" x2="76.7" y2="38.7"/>
	<line class="st2" x1="76.7" y1="42.1" x2="76.7" y2="47.7"/>
	<line class="st2" x1="76.7" y1="51.1" x2="76.7" y2="56.7"/>
	<line class="st2" x1="76.7" y1="60.1" x2="76.7" y2="65.7"/>
	<line class="st2" x1="76.7" y1="69.1" x2="76.7" y2="74.7"/>
	<line class="st2" x1="4.7" y1="1.3" x2="4.7" y2="6.8"/>
	<line class="st2" x1="4.7" y1="10.3" x2="4.7" y2="15.8"/>
	<line class="st2" x1="4.7" y1="19.3" x2="4.7" y2="24.8"/>
	<line class="st2" x1="4.7" y1="28.3" x2="4.7" y2="33.8"/>
	<line class="st2" x1="4.7" y1="37.3" x2="4.7" y2="42.8"/>
	<line class="st2" x1="4.7" y1="46.3" x2="4.7" y2="51.8"/>
	<line class="st2" x1="4.7" y1="55.3" x2="4.7" y2="60.8"/>
	<line class="st2" x1="4.7" y1="64.3" x2="4.7" y2="69.8"/>
	<line class="st2" x1="4.7" y1="73.3" x2="4.7" y2="78.8"/>
	<line class="st2" x1="10.5" y1="1.3" x2="10.5" y2="6.8"/>
	<line class="st2" x1="10.5" y1="10.3" x2="10.5" y2="15.8"/>
	<line class="st2" x1="10.5" y1="19.3" x2="10.5" y2="24.8"/>
	<line class="st2" x1="10.5" y1="28.3" x2="10.5" y2="33.8"/>
	<line class="st2" x1="10.5" y1="37.3" x2="10.5" y2="42.8"/>
	<line class="st2" x1="10.5" y1="46.3" x2="10.5" y2="51.8"/>
	<line class="st2" x1="10.5" y1="55.3" x2="10.5" y2="60.8"/>
	<line class="st2" x1="10.5" y1="64.3" x2="10.5" y2="69.8"/>
	<line class="st2" x1="10.5" y1="73.3" x2="10.5" y2="78.8"/>
	<line class="st2" x1="16.2" y1="1.3" x2="16.2" y2="6.8"/>
	<line class="st2" x1="16.2" y1="10.3" x2="16.2" y2="15.8"/>
	<line class="st2" x1="16.2" y1="19.3" x2="16.2" y2="24.8"/>
	<line class="st2" x1="16.2" y1="28.3" x2="16.2" y2="33.8"/>
	<line class="st2" x1="16.2" y1="37.3" x2="16.2" y2="42.8"/>
	<line class="st2" x1="16.2" y1="46.3" x2="16.2" y2="51.8"/>
	<line class="st2" x1="16.2" y1="55.3" x2="16.2" y2="60.8"/>
	<line class="st2" x1="16.2" y1="64.3" x2="16.2" y2="69.8"/>
	<line class="st2" x1="16.2" y1="73.3" x2="16.2" y2="78.8"/>
	<line class="st2" x1="22" y1="1.3" x2="22" y2="6.8"/>
	<line class="st2" x1="22" y1="10.3" x2="22" y2="15.8"/>
	<line class="st2" x1="22" y1="19.3" x2="22" y2="24.8"/>
	<line class="st2" x1="22" y1="28.3" x2="22" y2="33.8"/>
	<line class="st2" x1="22" y1="37.3" x2="22" y2="42.8"/>
	<line class="st2" x1="22" y1="46.3" x2="22" y2="51.8"/>
	<line class="st2" x1="22" y1="55.3" x2="22" y2="60.8"/>
	<line class="st2" x1="22" y1="64.3" x2="22" y2="69.8"/>
	<line class="st2" x1="22" y1="73.3" x2="22" y2="78.8"/>
	<line class="st2" x1="27.8" y1="1.3" x2="27.8" y2="6.8"/>
	<line class="st2" x1="27.8" y1="10.3" x2="27.8" y2="15.8"/>
	<line class="st2" x1="27.8" y1="19.3" x2="27.8" y2="24.8"/>
	<line class="st2" x1="27.8" y1="28.3" x2="27.8" y2="33.8"/>
	<line class="st2" x1="27.8" y1="37.3" x2="27.8" y2="42.8"/>
	<line class="st2" x1="27.8" y1="46.3" x2="27.8" y2="51.8"/>
	<line class="st2" x1="27.8" y1="55.3" x2="27.8" y2="60.8"/>
	<line class="st2" x1="27.8" y1="64.3" x2="27.8" y2="69.8"/>
	<line class="st2" x1="27.8" y1="73.3" x2="27.8" y2="78.8"/>
	<line class="st2" x1="33.5" y1="1.3" x2="33.5" y2="6.8"/>
	<line class="st2" x1="33.5" y1="10.3" x2="33.5" y2="15.8"/>
	<line class="st2" x1="33.5" y1="19.3" x2="33.5" y2="24.8"/>
	<line class="st2" x1="33.5" y1="28.3" x2="33.5" y2="33.8"/>
	<line class="st2" x1="33.5" y1="37.3" x2="33.5" y2="42.8"/>
	<line class="st2" x1="33.5" y1="46.3" x2="33.5" y2="51.8"/>
	<line class="st2" x1="33.5" y1="55.3" x2="33.5" y2="60.8"/>
	<line class="st2" x1="33.5" y1="64.3" x2="33.5" y2="69.8"/>
	<line class="st2" x1="33.5" y1="73.3" x2="33.5" y2="78.8"/>
	<line class="st2" x1="39.3" y1="1.3" x2="39.3" y2="6.8"/>
	<line class="st2" x1="39.3" y1="10.3" x2="39.3" y2="15.8"/>
	<line class="st2" x1="39.3" y1="19.3" x2="39.3" y2="24.8"/>
	<line class="st2" x1="39.3" y1="28.3" x2="39.3" y2="33.8"/>
	<line class="st2" x1="39.3" y1="37.3" x2="39.3" y2="42.8"/>
	<line class="st2" x1="39.3" y1="46.3" x2="39.3" y2="51.8"/>
	<line class="st2" x1="39.3" y1="55.3" x2="39.3" y2="60.8"/>
	<line class="st2" x1="39.3" y1="64.3" x2="39.3" y2="69.8"/>
	<line class="st2" x1="39.3" y1="73.3" x2="39.3" y2="78.8"/>
	<line class="st2" x1="45" y1="1.3" x2="45" y2="6.8"/>
	<line class="st2" x1="45" y1="10.3" x2="45" y2="15.8"/>
	<line class="st2" x1="45" y1="19.3" x2="45" y2="24.8"/>
	<line class="st2" x1="45" y1="28.3" x2="45" y2="33.8"/>
	<line class="st2" x1="45" y1="37.3" x2="45" y2="42.8"/>
	<line class="st2" x1="45" y1="46.3" x2="45" y2="51.8"/>
	<line class="st2" x1="45" y1="55.3" x2="45" y2="60.8"/>
	<line class="st2" x1="45" y1="64.3" x2="45" y2="69.8"/>
	<line class="st2" x1="45" y1="73.3" x2="45" y2="78.8"/>
	<line class="st2" x1="50.8" y1="1.3" x2="50.8" y2="6.8"/>
	<line class="st2" x1="50.8" y1="10.3" x2="50.8" y2="15.8"/>
	<line class="st2" x1="50.8" y1="19.3" x2="50.8" y2="24.8"/>
	<line class="st2" x1="50.8" y1="28.3" x2="50.8" y2="33.8"/>
	<line class="st2" x1="50.8" y1="37.3" x2="50.8" y2="42.8"/>
	<line class="st2" x1="50.8" y1="46.3" x2="50.8" y2="51.8"/>
	<line class="st2" x1="50.8" y1="55.3" x2="50.8" y2="60.8"/>
	<line class="st2" x1="50.8" y1="64.3" x2="50.8" y2="69.8"/>
	<line class="st2" x1="50.8" y1="73.3" x2="50.8" y2="78.8"/>
	<line class="st2" x1="56.6" y1="1.3" x2="56.6" y2="6.8"/>
	<line class="st2" x1="56.6" y1="10.3" x2="56.6" y2="15.8"/>
	<line class="st2" x1="56.6" y1="19.3" x2="56.6" y2="24.8"/>
	<line class="st2" x1="56.6" y1="28.3" x2="56.6" y2="33.8"/>
	<line class="st2" x1="56.6" y1="37.3" x2="56.6" y2="42.8"/>
	<line class="st2" x1="56.6" y1="46.3" x2="56.6" y2="51.8"/>
	<line class="st2" x1="56.6" y1="55.3" x2="56.6" y2="60.8"/>
	<line class="st2" x1="56.6" y1="64.3" x2="56.6" y2="69.8"/>
	<line class="st2" x1="56.6" y1="73.3" x2="56.6" y2="78.8"/>
	<line class="st2" x1="62.3" y1="1.3" x2="62.3" y2="6.8"/>
	<line class="st2" x1="62.3" y1="10.3" x2="62.3" y2="15.8"/>
	<line class="st2" x1="62.3" y1="19.3" x2="62.3" y2="24.8"/>
	<line class="st2" x1="62.3" y1="28.3" x2="62.3" y2="33.8"/>
	<line class="st2" x1="62.3" y1="37.3" x2="62.3" y2="42.8"/>
	<line class="st2" x1="62.3" y1="46.3" x2="62.3" y2="51.8"/>
	<line class="st2" x1="62.3" y1="55.3" x2="62.3" y2="60.8"/>
	<line class="st2" x1="62.3" y1="64.3" x2="62.3" y2="69.8"/>
	<line class="st2" x1="62.3" y1="73.3" x2="62.3" y2="78.8"/>
	<line class="st2" x1="68.1" y1="1.3" x2="68.1" y2="6.8"/>
	<line class="st2" x1="68.1" y1="10.3" x2="68.1" y2="15.8"/>
	<line class="st2" x1="68.1" y1="19.3" x2="68.1" y2="24.8"/>
	<line class="st2" x1="68.1" y1="28.3" x2="68.1" y2="33.8"/>
	<line class="st2" x1="68.1" y1="37.3" x2="68.1" y2="42.8"/>
	<line class="st2" x1="68.1" y1="46.3" x2="68.1" y2="51.8"/>
	<line class="st2" x1="68.1" y1="55.3" x2="68.1" y2="60.8"/>
	<line class="st2" x1="68.1" y1="64.3" x2="68.1" y2="69.8"/>
	<line class="st2" x1="68.1" y1="73.3" x2="68.1" y2="78.8"/>
	<line class="st2" x1="73.8" y1="1.3" x2="73.8" y2="6.8"/>
	<line class="st2" x1="73.8" y1="10.3" x2="73.8" y2="15.8"/>
	<line class="st2" x1="73.8" y1="19.3" x2="73.8" y2="24.8"/>
	<line class="st2" x1="73.8" y1="28.3" x2="73.8" y2="33.8"/>
	<line class="st2" x1="73.8" y1="37.3" x2="73.8" y2="42.8"/>
	<line class="st2" x1="73.8" y1="46.3" x2="73.8" y2="51.8"/>
	<line class="st2" x1="73.8" y1="55.3" x2="73.8" y2="60.8"/>
	<line class="st2" x1="73.8" y1="64.3" x2="73.8" y2="69.8"/>
	<line class="st2" x1="73.8" y1="73.3" x2="73.8" y2="78.8"/>
	<line class="st2" x1="79.6" y1="1.3" x2="79.6" y2="6.8"/>
	<line class="st2" x1="79.6" y1="10.3" x2="79.6" y2="15.8"/>
	<line class="st2" x1="79.6" y1="19.3" x2="79.6" y2="24.8"/>
	<line class="st2" x1="79.6" y1="28.3" x2="79.6" y2="33.8"/>
	<line class="st2" x1="79.6" y1="37.3" x2="79.6" y2="42.8"/>
	<line class="st2" x1="79.6" y1="46.3" x2="79.6" y2="51.8"/>
	<line class="st2" x1="79.6" y1="55.3" x2="79.6" y2="60.8"/>
	<line class="st2" x1="79.6" y1="64.3" x2="79.6" y2="69.8"/>
	<line class="st2" x1="79.6" y1="73.3" x2="79.6" y2="78.8"/>
	<rect class="st0" width="80.6" height="80.6"/>
	<rect class="st0" width="80.6" height="80.6"/>
</g>
</svg>
